<svg width="282" height="123" viewBox="0 0 282 123" fill="none" xmlns="http://www.w3.org/2000/svg">
<path d="M41.2035 23.1297H46.2067V39.1818V39.832H46.857H70.6044L80.3233 48.8972V59.8501L70.2959 68.8865H64.1917V51.9124V51.2622H63.5415H41.2042L31.1375 42.1904V32.1668L41.2035 23.1297ZM78.9065 30.9596V35.0209H64.1917V30.9548V30.3045H63.5415H50.2617V23.1297H70.2557L78.9065 30.9596ZM31.1375 59.883V56.0734H47.2298V61.026V61.6762H47.8801H60.1367V68.8865H39.5449L31.1375 59.883Z" fill="#D89216" stroke="#EFF4F5" stroke-width="1.30047"/>
<path d="M196.298 68.1658H177.197V60.0689H189.536H190.186V59.4187V31.1561V30.5058H189.536H177.197V22.409H196.298L206.429 31.4473V59.1274L196.298 68.1658ZM156.922 22.409H173.125V68.1658H156.922V22.409Z" fill="#D89216" stroke="#EFF4F5" stroke-width="1.30047"/>
<path d="M257.552 56.7969H238.479V48.6639H250.753H251.403V48.0137V31.8775V31.2273H250.753H238.479V23.1297H257.553L267.818 32.1713V47.7207L257.552 56.7969ZM218.186 68.8902V23.1297H234.36V68.8902H218.186Z" fill="#D89216" stroke="#EFF4F5" stroke-width="1.30047"/>
<path d="M274.532 16.2041C274.532 18.1194 276.084 19.672 278 19.672C279.915 19.672 281.467 18.1194 281.467 16.2041C281.467 14.2888 279.915 12.7362 278 12.7362C276.084 12.7362 274.532 14.2888 274.532 16.2041ZM55.8037 16.8543H278V15.5539H55.8037V16.8543Z" fill="#EFF4F5"/>
<path d="M247.971 74.126C247.971 75.0836 248.747 75.8599 249.705 75.8599C250.662 75.8599 251.439 75.0836 251.439 74.126C251.439 73.1683 250.662 72.392 249.705 72.392C248.747 72.392 247.971 73.1683 247.971 74.126ZM27.5088 74.4511H249.705V73.8009H27.5088V74.4511Z" fill="#EFF4F5"/>
<path d="M24.3797 99.6188C22.4645 99.6346 20.9247 101.2 20.9405 103.115C20.9563 105.03 22.5217 106.57 24.4369 106.554C26.3521 106.539 27.8919 104.973 27.8761 103.058C27.8603 101.143 26.2949 99.603 24.3797 99.6188ZM23.2844 45.6528L23.7581 103.092L25.0585 103.081L24.5848 45.6421L23.2844 45.6528Z" fill="#EFF4F5"/>
<path d="M123.272 19.6744C127.481 18.9021 129.597 23.214 130.128 25.4665H114.183L118.01 24.1392C118.01 22.9727 119.062 20.4467 123.272 19.6744Z" fill="#EFF4F5" stroke="#D89216" stroke-width="1.30047"/>
<path d="M118.597 26.915H129.121C128.749 28.0413 127.207 30.2938 124.018 30.2938C120.829 30.2938 119.075 28.0413 118.597 26.915Z" fill="#EFF4F5" stroke="#D89216" stroke-width="0.650235"/>
<path d="M91.1708 29.0863H88.1411V31.1377H91.1708V29.0863Z" fill="#EFF4F5"/>
<path d="M108.232 32.3443H94.9977V27.5176H108.232V32.3443Z" fill="#EFF4F5"/>
<path d="M115.089 31.1377H113.016V28.6036H115.089V31.1377Z" fill="#EFF4F5"/>
<path d="M106.638 35.9644L104.884 36.4471V37.8951L118.916 67.0971L117.002 68.0624L104.406 39.9465H102.97V68.7864H100.738V39.9465H99.4624L86.8655 68.0624L85.5898 67.0971L98.6651 37.8951V36.4471L96.7517 35.9644V35.1197H106.638V35.9644Z" fill="#EFF4F5"/>
<path d="M91.1708 29.0863H88.1411V31.1377H91.1708V29.0863Z" stroke="#D89216" stroke-width="0.650235"/>
<path d="M108.232 32.3443H94.9977V27.5176H108.232V32.3443Z" stroke="#D89216" stroke-width="0.650235"/>
<path d="M115.089 31.1377H113.016V28.6036H115.089V31.1377Z" stroke="#D89216" stroke-width="0.650235"/>
<path d="M106.638 35.9644L104.884 36.4471V37.8951L118.916 67.0971L117.002 68.0624L104.406 39.9465H102.97V68.7864H100.738V39.9465H99.4624L86.8655 68.0624L85.5898 67.0971L98.6651 37.8951V36.4471L96.7517 35.9644V35.1197H106.638V35.9644Z" stroke="#D89216" stroke-width="0.650235"/>
<path d="M129.381 31.9438C126.283 32.7161 124.913 34.5985 124.615 35.4432C124.615 36.2075 124.883 37.2774 125.955 35.4432C127.028 33.609 129.877 33.1505 131.168 33.1505C132.458 32.9896 135.397 33.4401 136.827 36.5292C138.257 39.6184 134.94 44.4934 133.104 46.5448L139.507 53.7849L143.826 62.7144H149.337L148.145 49.9235C144.918 45.3783 138.257 35.9983 137.423 34.8399C136.589 33.6815 135.487 32.9092 135.04 32.6678C134.444 32.1047 132.478 31.1715 129.381 31.9438Z" fill="#EFF4F5"/>
<path d="M136.529 55.7156L132.508 50.8889L127.594 55.7156V62.5938H133.253L133.699 58.491L136.529 55.7156Z" fill="#EFF4F5"/>
<path d="M131.763 35.2019C128.785 35.1053 127.544 36.5292 127.296 37.2533V40.27C127.296 41.4284 126.402 42.9247 125.955 43.5281C125.558 43.9303 124.138 44.8795 121.636 45.4588C118.509 46.1828 116.722 45.9414 115.382 46.4241C114.309 46.8103 114.141 47.5504 114.19 47.8721C114.488 48.5157 116.067 49.5856 119.998 48.7168C124.913 47.6308 124.913 47.6308 126.998 46.6655C129.083 45.7001 128.934 45.9414 131.168 44.4934C132.955 43.335 134.097 40.8733 134.444 39.7873C134.792 38.2991 134.742 35.2984 131.763 35.2019Z" fill="#EFF4F5"/>
<path d="M133.253 65.8518V68.7479H124.615V67.6619L126.402 67.0585L127.594 65.8518H133.253Z" fill="#EFF4F5"/>
<path d="M149.337 68.7479V65.8518H143.826L142.784 67.0585L140.997 67.6619V68.7479H149.337Z" fill="#EFF4F5"/>
<path d="M129.381 31.9438C126.283 32.7161 124.913 34.5985 124.615 35.4432C124.615 36.2075 124.883 37.2774 125.955 35.4432C127.028 33.609 129.877 33.1505 131.168 33.1505C132.458 32.9896 135.397 33.4401 136.827 36.5292C138.257 39.6184 134.94 44.4934 133.104 46.5448L139.507 53.7849L143.826 62.7144H149.337L148.145 49.9235C144.918 45.3783 138.257 35.9983 137.423 34.8399C136.589 33.6815 135.487 32.9092 135.04 32.6678C134.444 32.1047 132.478 31.1715 129.381 31.9438Z" stroke="#D89216" stroke-width="0.650235"/>
<path d="M136.529 55.7156L132.508 50.8889L127.594 55.7156V62.5938H133.253L133.699 58.491L136.529 55.7156Z" stroke="#D89216" stroke-width="0.650235"/>
<path d="M131.763 35.2019C128.785 35.1053 127.544 36.5292 127.296 37.2533V40.27C127.296 41.4284 126.402 42.9247 125.955 43.5281C125.558 43.9303 124.138 44.8795 121.636 45.4588C118.509 46.1828 116.722 45.9414 115.382 46.4241C114.309 46.8103 114.141 47.5504 114.19 47.8721C114.488 48.5157 116.067 49.5856 119.998 48.7168C124.913 47.6308 124.913 47.6308 126.998 46.6655C129.083 45.7001 128.934 45.9414 131.168 44.4934C132.955 43.335 134.097 40.8733 134.444 39.7873C134.792 38.2991 134.742 35.2984 131.763 35.2019Z" stroke="#D89216" stroke-width="0.650235"/>
<path d="M133.253 65.8518V68.7479H124.615V67.6619L126.402 67.0585L127.594 65.8518H133.253Z" stroke="#D89216" stroke-width="0.650235"/>
<path d="M149.337 68.7479V65.8518H143.826L142.784 67.0585L140.997 67.6619V68.7479H149.337Z" stroke="#D89216" stroke-width="0.650235"/>
<path d="M59.9742 7.15413L48.8049 17.411C43.0862 13.6461 35.6002 14.3138 32.5721 15.1183C29.1468 15.6814 21.7303 18.5694 19.4667 25.6165C17.203 32.6636 21.9984 37.8041 24.679 39.4935L14.2543 49.871L9.63764 46.8543L13.9565 42.1482L9.04194 36.1147L2.04247 36.5974L1 27.0645L8.44624 26.4612L11.5737 18.9797L5.76559 15.239L13.9565 7.75747L19.7645 11.4982L28.7 7.2748L27.9554 2.08602L40.7629 1L41.5076 6.43011L50.7409 8.48149L55.3576 4.37874L59.9742 7.15413Z" fill="#D89216" stroke="#EFF4F5" stroke-width="0.650235"/>
<ellipse cx="48.9541" cy="16.6874" rx="2.08495" ry="1.68937" fill="#EFF4F5"/>
<ellipse cx="55.8037" cy="4.62003" rx="2.08495" ry="1.68937" fill="#EFF4F5"/>
<ellipse cx="42.1035" cy="6.30949" rx="2.08495" ry="1.68937" fill="#EFF4F5"/>
<ellipse cx="28.4023" cy="2.68937" rx="2.08495" ry="1.68937" fill="#EFF4F5"/>
<ellipse cx="19.7646" cy="11.3778" rx="2.08495" ry="1.68937" fill="#EFF4F5"/>
<ellipse cx="6.06346" cy="14.998" rx="2.08495" ry="1.68937" fill="#EFF4F5"/>
<ellipse cx="8.14842" cy="25.8573" rx="2.08495" ry="1.68937" fill="#EFF4F5"/>
<ellipse cx="3.08495" cy="36.4765" rx="2.08495" ry="1.68937" fill="#EFF4F5"/>
<ellipse cx="13.5098" cy="42.0282" rx="2.08495" ry="1.68937" fill="#EFF4F5"/>
<ellipse cx="24.2324" cy="39.8554" rx="2.08495" ry="1.68937" fill="#EFF4F5"/>
<path d="M33.5117 99.5151C33.5117 99.458 33.5559 99.2806 33.6443 98.9827C33.74 98.66 33.7879 98.3112 33.7879 97.9364L33.799 97.6609V97.5231L33.8045 97.3854V97.2476L33.81 97.1136C33.81 96.6568 33.7971 96.3416 33.7713 96.1678C33.7456 95.9916 33.6959 95.8253 33.6222 95.6689C33.5522 95.5125 33.5172 95.3636 33.5172 95.2221C33.5172 94.9416 33.7971 94.8013 34.3569 94.8013H34.4508C34.6828 94.8013 34.8559 94.8497 34.9701 94.9466C35.0842 95.0434 35.1413 95.1513 35.1413 95.2705V95.3263C35.1413 95.3735 35.1137 95.4939 35.0584 95.6875C35.0069 95.8811 34.9811 96.0834 34.9811 96.2944L34.9701 96.4284L34.9535 96.9832V97.3295L34.948 97.538C34.948 97.605 34.948 97.6721 34.948 97.7391L34.9424 97.8061V98.0742L34.9369 98.2082V98.6997C34.9369 98.8586 34.9608 99.0187 35.0087 99.18C35.0603 99.3414 35.0861 99.4816 35.0861 99.6008C35.0861 99.7174 35.0327 99.818 34.9259 99.9024C34.8227 99.9843 34.646 100.025 34.3956 100.025H34.2077C34.0089 100.025 33.8432 99.9892 33.7106 99.9172C33.578 99.8453 33.5117 99.7323 33.5117 99.5784V99.5151ZM36.8814 96.8492C36.9219 96.6506 37.036 96.5513 37.2238 96.5513C37.4117 96.5513 37.5829 96.5935 37.7376 96.6779C37.8922 96.7623 37.9917 96.8045 38.0359 96.8045C38.0801 96.8045 38.1997 96.7685 38.3949 96.6965C38.5938 96.6221 38.7172 96.5774 38.765 96.5625C39.0633 96.4731 39.3635 96.4284 39.6654 96.4284C40.2252 96.4284 40.6395 96.5538 40.9083 96.8045C41.1809 97.0552 41.3171 97.5095 41.3171 98.1673C41.3171 98.3013 41.3429 98.5806 41.3944 99.005C41.4497 99.427 41.4773 99.6442 41.4773 99.6566C41.4773 99.818 41.3392 99.8986 41.063 99.8986C40.7868 99.8986 40.6027 99.7956 40.5106 99.5896C40.4222 99.3836 40.3431 98.9926 40.2731 98.4167C40.2068 97.8384 40.1313 97.4822 40.0466 97.3481C39.8882 97.0949 39.5992 96.9683 39.1793 96.9683C38.9694 96.9683 38.7687 97.0093 38.5772 97.0912C38.3894 97.1731 38.2403 97.2935 38.1298 97.4524C38.023 97.6113 37.9346 97.9873 37.8646 98.5806C37.7983 99.1738 37.7449 99.5213 37.7044 99.6231C37.6639 99.7249 37.5995 99.8031 37.5111 99.8577C37.4264 99.9098 37.3067 99.9359 37.152 99.9359C37.001 99.9359 36.8943 99.9123 36.8316 99.8651C36.7727 99.8155 36.7433 99.7112 36.7433 99.5523V99.4593L36.7488 99.3625L36.7653 98.8784C36.7653 98.8139 36.7653 98.7493 36.7653 98.6848L36.7764 98.3944C36.7764 97.7217 36.8114 97.2066 36.8814 96.8492ZM43.593 99.6305C43.3352 99.3674 43.2063 98.938 43.2063 98.3423C43.2063 97.7465 43.1529 97.3407 43.0461 97.1247C43.0019 97.0354 42.9135 96.9559 42.781 96.8864C42.6521 96.8169 42.5876 96.7238 42.5876 96.6072C42.5876 96.4905 42.6576 96.3962 42.7976 96.3242C42.827 96.3093 42.897 96.2808 43.0074 96.2386C43.1179 96.1939 43.1916 96.1529 43.2284 96.1157C43.2652 96.0809 43.3039 95.9618 43.3444 95.7582C43.4328 95.3512 43.5948 95.1476 43.8305 95.1476H43.9134C44.1012 95.1476 44.2338 95.1985 44.3111 95.3003C44.3516 95.3499 44.3921 95.4815 44.4326 95.6949C44.4768 95.9084 44.5358 96.0487 44.6094 96.1157C44.6831 96.1802 44.8709 96.2485 45.1729 96.3205C45.4748 96.3925 45.6258 96.4806 45.6258 96.5848C45.6258 96.6866 45.5025 96.7635 45.2557 96.8157C44.8875 96.8926 44.6665 96.9795 44.5928 97.0763C44.4197 97.3022 44.3332 97.7577 44.3332 98.4428C44.3332 98.7605 44.3866 98.979 44.4934 99.0981C44.6002 99.2148 44.7493 99.2979 44.9409 99.3476C44.9593 99.3525 45.0347 99.3687 45.1673 99.396C45.3036 99.4208 45.4122 99.4543 45.4932 99.4965C45.5743 99.5362 45.6148 99.6032 45.6148 99.6976C45.6148 99.7894 45.5485 99.8664 45.4159 99.9284C45.276 99.9905 45.0808 100.022 44.8304 100.022C44.2669 100.022 43.8545 99.8912 43.593 99.6305ZM49.4098 97.8582C49.6454 97.8582 49.848 97.8222 50.0174 97.7502C50.1095 97.7105 50.1555 97.6311 50.1555 97.5119V97.4896C50.1555 97.3109 50.0745 97.1607 49.9124 97.0391C49.7504 96.915 49.5202 96.8529 49.2219 96.8529H49.1556C48.8205 96.8529 48.5112 96.9373 48.2276 97.1061C47.9477 97.2749 47.8078 97.4884 47.8078 97.7465V97.8098C47.8078 97.8868 47.8943 97.9252 48.0674 97.9252L48.1227 97.9327H48.3215L48.3547 97.929L48.6585 97.9141L48.6971 97.9104L48.9015 97.8992C48.9273 97.8967 48.9568 97.8942 48.9899 97.8917C49.0231 97.8893 49.0893 97.883 49.1888 97.8731C49.2919 97.8632 49.3656 97.8582 49.4098 97.8582ZM49.117 100.089H48.9899C48.618 100.086 48.2792 100.04 47.9735 99.9508C47.388 99.777 46.9921 99.4791 46.7859 99.0572C46.6717 98.8213 46.6146 98.583 46.6146 98.3423V98.1747C46.6183 97.924 46.6901 97.6745 46.8301 97.4263C47.1173 96.9249 47.5905 96.5923 48.2497 96.4284C48.559 96.354 48.8758 96.3168 49.1998 96.3168H49.3214C49.8443 96.3168 50.2789 96.426 50.625 96.6444C50.9712 96.8604 51.1443 97.1557 51.1443 97.5306V97.605C51.1443 97.8682 51.0191 98.0531 50.7686 98.1598C50.5772 98.2417 50.1371 98.3162 49.4484 98.3832C48.7634 98.4502 48.3528 98.4986 48.2166 98.5284C47.9956 98.5756 47.8851 98.6439 47.8851 98.7332C47.8851 98.9591 48.0527 99.1477 48.3878 99.2992C48.583 99.386 48.8868 99.4295 49.2993 99.4295C49.4687 99.4295 49.732 99.396 50.0892 99.329C50.4501 99.2595 50.6766 99.2247 50.7686 99.2247C50.9859 99.2247 51.0946 99.2992 51.0946 99.4481C51.0946 99.597 50.8828 99.741 50.4593 99.88C50.0395 100.019 49.592 100.089 49.117 100.089ZM55.8784 97.8992L55.8673 97.7167C55.8673 97.4784 55.7899 97.2972 55.6353 97.1731C55.4806 97.049 55.2633 96.987 54.9835 96.987H54.7791C54.5986 96.987 54.4127 97.0229 54.2211 97.0949C54.0333 97.1669 53.8823 97.26 53.7682 97.3742C53.5435 97.6026 53.4312 97.9364 53.4312 98.3758L53.4367 98.413C53.4367 98.7531 53.5141 99.01 53.6687 99.1838C53.875 99.4171 54.1456 99.5337 54.4808 99.5337H54.6299C55.0019 99.5337 55.3002 99.4444 55.5248 99.2656C55.7494 99.0869 55.8618 98.8077 55.8618 98.4279C55.8691 98.3783 55.8728 98.341 55.8728 98.3162L55.8839 98.1263V97.9364L55.8784 97.8992ZM52.5087 98.2119V98.0109C52.5087 97.7999 52.5658 97.5839 52.68 97.363C52.7978 97.1396 52.9377 96.9634 53.0998 96.8343C53.4607 96.5464 53.9873 96.4024 54.6796 96.4024C54.9411 96.4024 55.2247 96.4359 55.5303 96.5029C55.836 96.5699 56.0956 96.6035 56.3092 96.6035C56.6517 96.6035 56.8598 96.6916 56.9334 96.8678C57.0108 97.0441 57.0494 97.6001 57.0494 98.5359V99.0534L57.0605 99.3438C57.0678 99.4705 57.0715 99.535 57.0715 99.5375V100.033C57.0715 100.564 56.8598 100.986 56.4363 101.299C56.219 101.457 55.9391 101.578 55.5966 101.66C55.2578 101.744 54.9208 101.786 54.5857 101.786H54.4311C54.0775 101.786 53.735 101.743 53.4036 101.656C53.0758 101.569 52.912 101.459 52.912 101.325C52.912 101.171 53.0906 101.094 53.4478 101.094C53.4846 101.094 53.5877 101.1 53.7571 101.112C53.9265 101.125 54.1199 101.131 54.3371 101.131C54.7864 101.131 55.1602 101.04 55.4585 100.859C55.7605 100.681 55.9115 100.445 55.9115 100.152C55.9115 100.01 55.8489 99.9396 55.7237 99.9396L54.9614 99.9917C53.8271 99.9917 53.0758 99.6554 52.7076 98.9827C52.575 98.7345 52.5087 98.4775 52.5087 98.2119ZM58.7121 97.0018C58.7121 96.8306 58.7435 96.704 58.806 96.6221C58.8687 96.5377 58.9846 96.4955 59.1541 96.4955C59.3235 96.4955 59.5186 96.5364 59.7396 96.6183C59.9606 96.7003 60.0839 96.7412 60.1097 96.7412C60.1392 96.7412 60.2018 96.7189 60.2975 96.6742C60.6548 96.5054 60.9715 96.421 61.2476 96.421H61.4023C61.5717 96.421 61.7135 96.452 61.8277 96.5141C61.9456 96.5762 62.0045 96.6643 62.0045 96.7785C62.0045 96.8901 61.9306 96.9721 61.7836 97.0242C61.7208 97.0465 61.5901 97.0652 61.3913 97.08C61.1924 97.0949 60.9972 97.1272 60.8057 97.1768C60.6179 97.2265 60.4503 97.3233 60.3031 97.4673C60.0895 97.6783 59.9827 98.0891 59.9827 98.6997L59.9605 99.1167L59.9495 99.355C59.9495 99.5759 59.8961 99.7385 59.7893 99.8428C59.6862 99.947 59.5094 99.9992 59.259 99.9992H59.1762C58.9552 99.9992 58.8208 99.9235 58.7729 99.772C58.7692 99.7596 58.7674 99.5238 58.7674 99.0646V98.3162L58.7619 98.2529V98.13L58.7563 98.0667C58.7563 98.0245 58.7563 97.9823 58.7563 97.9401L58.7342 97.4598L58.7121 97.1136V97.0018ZM63.9102 99.0236C63.9102 99.1825 64.0244 99.3153 64.2527 99.422C64.4037 99.494 64.6172 99.53 64.8936 99.53H64.9266C64.9928 99.5226 65.063 99.5189 65.1365 99.5189C65.3834 99.5189 65.6043 99.4444 65.7994 99.2954C65.9983 99.1465 66.0978 99.0038 66.0978 98.8673L66.1089 98.8226L66.1253 98.6252V98.4316C66.1253 98.3398 66.0792 98.2777 65.9872 98.2455C65.8987 98.2107 65.7276 98.1933 65.4736 98.1933H65.3961L65.3574 98.1971H65.2856L65.0536 98.2082C64.9764 98.2157 64.9136 98.2194 64.8658 98.2194C64.6008 98.2194 64.3723 98.2752 64.1808 98.3869C63.993 98.4986 63.8991 98.6476 63.8991 98.8337V98.9417C63.9065 98.9814 63.9102 99.0087 63.9102 99.0236ZM63.5179 96.9944C63.2749 96.9944 63.1533 96.905 63.1533 96.7263C63.1533 96.6022 63.2806 96.498 63.5346 96.4136C63.9396 96.277 64.3723 96.2088 64.8327 96.2088H65.0978C65.466 96.2088 65.8105 96.2535 66.1309 96.3428C66.455 96.4322 66.7034 96.5699 66.8765 96.7561C67.0976 96.9919 67.2079 97.5144 67.2079 98.3236C67.2079 98.7506 67.23 99.0658 67.2744 99.2694C67.3222 99.4729 67.3462 99.6219 67.3462 99.7162C67.3462 99.9024 67.1695 99.9954 66.8159 99.9954C66.6576 99.9954 66.5102 99.9632 66.3739 99.8986C66.2376 99.8341 66.1289 99.8018 66.0481 99.8018C65.9669 99.8018 65.7517 99.849 65.4018 99.9433C65.0519 100.038 64.7001 100.085 64.3466 100.085C63.8494 100.085 63.459 99.9793 63.1757 99.7683C62.8957 99.5573 62.7557 99.2979 62.7557 98.9901V98.9045C62.7557 98.5272 62.9989 98.2355 63.4848 98.0295C63.8016 97.8955 64.2894 97.8036 64.9487 97.754C65.6117 97.7043 65.9615 97.6646 65.9983 97.6348C66.0461 97.5976 66.0701 97.5343 66.0701 97.4449C66.0701 97.4176 66.0681 97.3891 66.0645 97.3593C66.0167 97.0068 65.6484 96.8293 64.9597 96.8269C64.7058 96.8269 64.4277 96.8554 64.1257 96.9125C63.8236 96.9671 63.6211 96.9944 63.5179 96.9944ZM69.5557 99.6305C69.298 99.3674 69.1691 98.938 69.1691 98.3423C69.1691 97.7465 69.1156 97.3407 69.009 97.1247C68.9646 97.0354 68.8763 96.9559 68.7437 96.8864C68.6147 96.8169 68.5502 96.7238 68.5502 96.6072C68.5502 96.4905 68.6204 96.3962 68.7604 96.3242C68.7898 96.3093 68.8596 96.2808 68.9702 96.2386C69.0805 96.1939 69.1544 96.1529 69.1911 96.1157C69.2279 96.0809 69.2666 95.9618 69.3071 95.7582C69.3956 95.3512 69.5577 95.1476 69.7933 95.1476H69.8761C70.0639 95.1476 70.1966 95.1985 70.2738 95.3003C70.3142 95.3499 70.355 95.4815 70.3954 95.6949C70.4395 95.9084 70.4984 96.0487 70.5722 96.1157C70.6457 96.1802 70.8335 96.2485 71.1356 96.3205C71.4376 96.3925 71.5887 96.4806 71.5887 96.5848C71.5887 96.6866 71.4651 96.7635 71.2184 96.8157C70.8502 96.8926 70.6293 96.9795 70.5555 97.0763C70.3824 97.3022 70.2959 97.7577 70.2959 98.4428C70.2959 98.7605 70.3493 98.979 70.4562 99.0981C70.5628 99.2148 70.7122 99.2979 70.9036 99.3476C70.922 99.3525 70.9975 99.3687 71.1302 99.396C71.2662 99.4208 71.3748 99.4543 71.456 99.4965C71.5369 99.5362 71.5776 99.6032 71.5776 99.6976C71.5776 99.7894 71.5112 99.8664 71.3785 99.9284C71.2388 99.9905 71.0436 100.022 70.7931 100.022C70.2297 100.022 69.8173 99.8912 69.5557 99.6305ZM75.3726 97.8582C75.6082 97.8582 75.8107 97.8222 75.9801 97.7502C76.072 97.7105 76.1181 97.6311 76.1181 97.5119V97.4896C76.1181 97.3109 76.0373 97.1607 75.8752 97.0391C75.7131 96.915 75.4829 96.8529 75.1845 96.8529H75.1184C74.7832 96.8529 74.4738 96.9373 74.1904 97.1061C73.9104 97.2749 73.7704 97.4884 73.7704 97.7465V97.8098C73.7704 97.8868 73.8569 97.9252 74.03 97.9252L74.0855 97.9327H74.2843L74.3174 97.929L74.6211 97.9141L74.6599 97.9104L74.8644 97.8992C74.8901 97.8967 74.9195 97.8942 74.9526 97.8917C74.9857 97.8893 75.0522 97.883 75.1514 97.8731C75.2547 97.8632 75.3282 97.8582 75.3726 97.8582ZM75.0796 100.089H74.9526C74.5807 100.086 74.2419 100.04 73.9361 99.9508C73.3507 99.777 72.9547 99.4791 72.7485 99.0572C72.6346 98.8213 72.5774 98.583 72.5774 98.3423V98.1747C72.5811 97.924 72.6529 97.6745 72.7927 97.4263C73.08 96.9249 73.5532 96.5923 74.2125 96.4284C74.5219 96.354 74.8386 96.3168 75.1625 96.3168H75.2841C75.807 96.3168 76.2415 96.426 76.5876 96.6444C76.9338 96.8604 77.1069 97.1557 77.1069 97.5306V97.605C77.1069 97.8682 76.9819 98.0531 76.7313 98.1598C76.5398 98.2417 76.0998 98.3162 75.4111 98.3832C74.7261 98.4502 74.3157 98.4986 74.1794 98.5284C73.9585 98.5756 73.8479 98.6439 73.8479 98.7332C73.8479 98.9591 74.0153 99.1477 74.3505 99.2992C74.5456 99.386 74.8497 99.4295 75.262 99.4295C75.4314 99.4295 75.6948 99.396 76.052 99.329C76.4129 99.2595 76.6394 99.2247 76.7313 99.2247C76.9485 99.2247 77.0574 99.2992 77.0574 99.4481C77.0574 99.597 76.8456 99.741 76.4219 99.88C76.0022 100.019 75.5548 100.089 75.0796 100.089ZM79.3554 98.1747V98.4204C79.3628 98.4701 79.3664 98.5086 79.3664 98.5359C79.3664 98.8164 79.4767 99.0509 79.6976 99.2396C79.9225 99.4282 80.1858 99.5226 80.4876 99.5226H80.543C80.7602 99.5226 80.961 99.4878 81.1451 99.4183C81.3293 99.3488 81.4653 99.2607 81.5538 99.154C81.7306 98.943 81.8188 98.5533 81.8188 97.9848L81.8245 97.9104V97.8359L81.8188 97.7986L81.8135 97.687L81.7968 97.5008C81.7968 97.2997 81.7122 97.1433 81.5428 97.0316C81.3771 96.9174 81.1579 96.8604 80.8855 96.8604H80.7251C80.3348 96.8604 80.009 96.9808 79.7474 97.2215C79.4861 97.4598 79.3554 97.7775 79.3554 98.1747ZM83.1504 99.4444C83.1504 99.7323 82.9736 99.8763 82.6201 99.8763C82.4948 99.8763 82.3695 99.8552 82.2442 99.813C82.1192 99.7708 82.0343 99.7497 81.9902 99.7497C81.9498 99.7497 81.7657 99.7919 81.4379 99.8763C81.1137 99.9607 80.832 100.003 80.5928 100.003H80.3552C79.7253 100.003 79.2375 99.8527 78.8913 99.5523C78.5451 99.252 78.372 98.8536 78.372 98.3572L78.3777 98.2678V98.1784C78.3777 97.9501 78.4382 97.713 78.5598 97.4673C78.6851 97.2215 78.8619 97.0068 79.0901 96.8231C79.5248 96.4806 80.0956 96.3093 80.8026 96.3093L81.6036 96.3465C81.7546 96.3465 81.8522 96.282 81.8963 96.1529C81.9404 96.0214 81.9735 95.793 81.9959 95.4678C82.0179 95.1402 82.0584 94.9304 82.1172 94.8386C82.2057 94.7021 82.3678 94.6338 82.6034 94.6338H82.6973C82.8704 94.6338 82.9846 94.6872 83.0398 94.7939C83.0655 94.8435 83.0785 95.0334 83.0785 95.3636L83.0619 95.7918L83.0565 95.8774L83.0288 96.9162V98.1114C83.0288 98.2181 83.0452 98.4316 83.0785 98.7518L83.1116 99.0646C83.1374 99.3079 83.1504 99.4345 83.1504 99.4444ZM95.3968 99.5449C95.3968 99.7212 95.2735 99.8093 95.0269 99.8093C94.9457 99.8093 94.8428 99.7646 94.7175 99.6752C94.5959 99.5859 94.5093 99.4493 94.4579 99.2656C94.4064 99.082 94.3473 98.5657 94.2811 97.7167C94.2186 96.8653 94.1374 96.4396 94.0381 96.4396C93.9423 96.4396 93.6365 96.8306 93.1209 97.6125C92.6093 98.3944 92.3109 98.8275 92.2261 98.9119C92.0603 99.0758 91.8782 99.1577 91.6793 99.1577C91.4805 99.1577 91.3221 99.0907 91.2042 98.9566C91.0863 98.8226 90.9282 98.5793 90.729 98.2268C90.059 97.0428 89.652 96.4508 89.5084 96.4508C89.4238 96.4508 89.2911 96.9174 89.1107 97.8508C88.9339 98.7816 88.8417 99.2582 88.8344 99.2806C88.7204 99.5759 88.573 99.7236 88.3926 99.7236C88.1567 99.7236 88.0391 99.6355 88.0391 99.4593C88.0391 99.4022 88.0575 99.2073 88.0942 98.8747C88.1347 98.5396 88.1604 98.2628 88.1714 98.0444C88.1825 97.8235 88.2011 97.5343 88.2269 97.1768C88.2563 96.8169 88.271 96.3155 88.271 95.6726C88.271 95.4939 88.3171 95.3512 88.409 95.2444C88.538 95.093 88.7258 95.0173 88.9724 95.0173C89.2193 95.0173 89.4569 95.1278 89.6851 95.3487C89.917 95.5671 90.302 96.0325 90.8396 96.7449C91.381 97.4549 91.6737 97.8098 91.7178 97.8098C91.7659 97.8098 92.0456 97.4809 92.5575 96.8231C93.0731 96.1629 93.4156 95.7434 93.585 95.5646C93.9349 95.1973 94.2517 95.0136 94.5351 95.0136C94.8849 95.0136 95.1115 95.1129 95.2147 95.3114C95.3176 95.5075 95.3694 96.0462 95.3694 96.9274L95.3307 98.4056C95.3307 98.6836 95.3417 98.9281 95.3638 99.1391C95.3858 99.3476 95.3968 99.4829 95.3968 99.5449ZM97.8826 99.0236C97.8826 99.1825 97.9969 99.3153 98.2251 99.422C98.3762 99.494 98.5897 99.53 98.866 99.53H98.8991C98.9656 99.5226 99.0354 99.5189 99.109 99.5189C99.3559 99.5189 99.5768 99.4444 99.7719 99.2954C99.9707 99.1465 100.07 99.0038 100.07 98.8673L100.081 98.8226L100.098 98.6252V98.4316C100.098 98.3398 100.052 98.2777 99.9597 98.2455C99.8715 98.2107 99.7001 98.1933 99.4461 98.1933H99.3686L99.3301 98.1971H99.2583L99.0261 98.2082C98.9489 98.2157 98.8864 98.2194 98.8383 98.2194C98.5733 98.2194 98.3448 98.2752 98.1533 98.3869C97.9655 98.4986 97.8716 98.6476 97.8716 98.8337V98.9417C97.8789 98.9814 97.8826 99.0087 97.8826 99.0236ZM97.4906 96.9944C97.2474 96.9944 97.1261 96.905 97.1261 96.7263C97.1261 96.6022 97.253 96.498 97.507 96.4136C97.9123 96.277 98.3448 96.2088 98.8052 96.2088H99.0705C99.4387 96.2088 99.7829 96.2535 100.103 96.3428C100.428 96.4322 100.676 96.5699 100.849 96.7561C101.07 96.9919 101.181 97.5144 101.181 98.3236C101.181 98.7506 101.203 99.0658 101.247 99.2694C101.295 99.4729 101.319 99.6219 101.319 99.7162C101.319 99.9024 101.142 99.9954 100.788 99.9954C100.63 99.9954 100.483 99.9632 100.346 99.8986C100.21 99.8341 100.101 99.8018 100.021 99.8018C99.9396 99.8018 99.7241 99.849 99.3743 99.9433C99.0244 100.038 98.6726 100.085 98.319 100.085C97.8221 100.085 97.4315 99.9793 97.1481 99.7683C96.8681 99.5573 96.7281 99.2979 96.7281 98.9901V98.9045C96.7281 98.5272 96.9713 98.2355 97.4572 98.0295C97.774 97.8955 98.2622 97.8036 98.9212 97.754C99.5841 97.7043 99.934 97.6646 99.9707 97.6348C100.019 97.5976 100.043 97.5343 100.043 97.4449C100.043 97.4176 100.041 97.3891 100.037 97.3593C99.9891 97.0068 99.6209 96.8293 98.9322 96.8269C98.6782 96.8269 98.4002 96.8554 98.0981 96.9125C97.7961 96.9671 97.5936 96.9944 97.4906 96.9944ZM106.417 98.1487V98.0221C106.417 97.6224 106.311 97.3245 106.097 97.1284C105.883 96.9324 105.62 96.8343 105.307 96.8343H105.202C104.826 96.8343 104.519 96.9212 104.28 97.0949C104.044 97.2662 103.926 97.5045 103.926 97.8098L103.909 97.9252L103.898 98.0816V98.2417L103.893 98.3609V98.4763C103.893 98.9082 103.952 99.1838 104.069 99.3029C104.243 99.4791 104.526 99.5673 104.92 99.5673H104.976C105.421 99.5673 105.773 99.4407 106.031 99.1875C106.288 98.9343 106.417 98.588 106.417 98.1487ZM103.401 96.4768C103.508 96.4768 103.618 96.4967 103.733 96.5364C103.847 96.5737 103.924 96.5923 103.965 96.5923C104.005 96.5923 104.2 96.5464 104.55 96.4545C104.9 96.3602 105.224 96.313 105.522 96.313H105.644C105.916 96.313 106.18 96.354 106.434 96.4359C106.688 96.5153 106.903 96.6332 107.08 96.7896C107.412 97.0825 107.577 97.4412 107.577 97.8657V98.1263C107.577 98.3969 107.513 98.665 107.384 98.9305C107.255 99.1986 107.08 99.4146 106.859 99.5784C106.406 99.916 105.797 100.085 105.031 100.085C104.839 100.085 104.659 100.072 104.489 100.048C104.324 100.025 104.209 100.014 104.147 100.014C103.967 100.014 103.876 100.278 103.876 100.807C103.876 101.112 103.827 101.325 103.727 101.444C103.631 101.563 103.477 101.623 103.263 101.623H103.164C103.024 101.623 102.922 101.594 102.86 101.537C102.801 101.482 102.772 101.384 102.772 101.243V101.165L102.777 101.083L102.799 100.42L102.832 99.5821L102.865 98.2306C102.865 97.2476 102.871 96.74 102.882 96.7077C102.937 96.5538 103.11 96.4768 103.401 96.4768ZM112.527 98.1487V98.0221C112.527 97.6224 112.42 97.3245 112.206 97.1284C111.993 96.9324 111.73 96.8343 111.417 96.8343H111.312C110.936 96.8343 110.628 96.9212 110.389 97.0949C110.153 97.2662 110.035 97.5045 110.035 97.8098L110.019 97.9252L110.008 98.0816V98.2417L110.002 98.3609V98.4763C110.002 98.9082 110.061 99.1838 110.179 99.3029C110.352 99.4791 110.636 99.5673 111.03 99.5673H111.085C111.531 99.5673 111.882 99.4407 112.14 99.1875C112.398 98.9343 112.527 98.588 112.527 98.1487ZM109.511 96.4768C109.617 96.4768 109.728 96.4967 109.842 96.5364C109.956 96.5737 110.034 96.5923 110.074 96.5923C110.115 96.5923 110.31 96.5464 110.66 96.4545C111.01 96.3602 111.334 96.313 111.632 96.313H111.753C112.026 96.313 112.289 96.354 112.543 96.4359C112.798 96.5153 113.013 96.6332 113.19 96.7896C113.521 97.0825 113.687 97.4412 113.687 97.8657V98.1263C113.687 98.3969 113.622 98.665 113.494 98.9305C113.365 99.1986 113.19 99.4146 112.969 99.5784C112.516 99.916 111.906 100.085 111.14 100.085C110.949 100.085 110.768 100.072 110.599 100.048C110.433 100.025 110.319 100.014 110.256 100.014C110.076 100.014 109.986 100.278 109.986 100.807C109.986 101.112 109.936 101.325 109.837 101.444C109.741 101.563 109.586 101.623 109.373 101.623H109.273C109.133 101.623 109.032 101.594 108.969 101.537C108.91 101.482 108.881 101.384 108.881 101.243V101.165L108.887 101.083L108.909 100.42L108.942 99.5821L108.975 98.2306C108.975 97.2476 108.981 96.74 108.992 96.7077C109.047 96.5538 109.22 96.4768 109.511 96.4768ZM116.377 95.2779C116.377 95.5361 116.16 95.6652 115.725 95.6652H115.681L115.659 95.6614L115.493 95.6503C115.478 95.6478 115.465 95.6465 115.454 95.6465C115.215 95.6465 115.096 95.5361 115.096 95.3152V95.2444C115.096 95.1079 115.142 95.0086 115.234 94.9466C115.326 94.8845 115.44 94.8535 115.576 94.8535L115.703 94.8423H115.83L116.018 94.8609C116.246 94.8609 116.36 94.9478 116.36 95.1216L116.377 95.2072V95.2779ZM116.195 98.3311L116.427 99.4742V99.5561L116.421 99.5933C116.421 99.7547 116.371 99.8688 116.272 99.9359C116.173 100.003 115.979 100.036 115.692 100.036H115.626C115.368 100.036 115.204 99.9421 115.134 99.7534C115.097 99.6566 115.079 99.283 115.079 98.6327V97.0391L115.051 96.7896V96.7077C115.051 96.5861 115.085 96.5017 115.151 96.4545C115.217 96.4074 115.322 96.3838 115.465 96.3838H115.653C115.915 96.3838 116.075 96.4471 116.134 96.5737C116.16 96.6283 116.173 96.8318 116.173 97.1843V97.9885L116.189 98.2119C116.193 98.2417 116.195 98.2815 116.195 98.3311ZM118.04 96.8492C118.08 96.6506 118.194 96.5513 118.382 96.5513C118.57 96.5513 118.741 96.5935 118.896 96.6779C119.051 96.7623 119.15 96.8045 119.194 96.8045C119.238 96.8045 119.358 96.7685 119.553 96.6965C119.752 96.6221 119.876 96.5774 119.923 96.5625C120.222 96.4731 120.522 96.4284 120.824 96.4284C121.384 96.4284 121.798 96.5538 122.067 96.8045C122.339 97.0552 122.475 97.5095 122.475 98.1673C122.475 98.3013 122.501 98.5806 122.553 99.005C122.608 99.427 122.636 99.6442 122.636 99.6566C122.636 99.818 122.498 99.8986 122.221 99.8986C121.945 99.8986 121.761 99.7956 121.669 99.5896C121.58 99.3836 121.501 98.9926 121.431 98.4167C121.365 97.8384 121.29 97.4822 121.205 97.3481C121.047 97.0949 120.757 96.9683 120.338 96.9683C120.128 96.9683 119.927 97.0093 119.736 97.0912C119.548 97.1731 119.399 97.2935 119.288 97.4524C119.181 97.6113 119.093 97.9873 119.023 98.5806C118.957 99.1738 118.903 99.5213 118.863 99.6231C118.822 99.7249 118.758 99.8031 118.669 99.8577C118.585 99.9098 118.465 99.9359 118.31 99.9359C118.159 99.9359 118.052 99.9123 117.99 99.8651C117.931 99.8155 117.902 99.7112 117.902 99.5523V99.4593L117.907 99.3625L117.924 98.8784C117.924 98.8139 117.924 98.7493 117.924 98.6848L117.935 98.3944C117.935 97.7217 117.97 97.2066 118.04 96.8492ZM127.337 97.8992L127.326 97.7167C127.326 97.4784 127.248 97.2972 127.094 97.1731C126.939 97.049 126.722 96.987 126.442 96.987H126.237C126.057 96.987 125.871 97.0229 125.68 97.0949C125.492 97.1669 125.341 97.26 125.226 97.3742C125.002 97.6026 124.89 97.9364 124.89 98.3758L124.895 98.413C124.895 98.7531 124.972 99.01 125.127 99.1838C125.333 99.4171 125.604 99.5337 125.939 99.5337H126.088C126.46 99.5337 126.759 99.4444 126.983 99.2656C127.208 99.0869 127.32 98.8077 127.32 98.4279C127.327 98.3783 127.331 98.341 127.331 98.3162L127.342 98.1263V97.9364L127.337 97.8992ZM123.967 98.2119V98.0109C123.967 97.7999 124.024 97.5839 124.138 97.363C124.256 97.1396 124.396 96.9634 124.558 96.8343C124.919 96.5464 125.446 96.4024 126.138 96.4024C126.399 96.4024 126.683 96.4359 126.989 96.5029C127.294 96.5699 127.554 96.6035 127.767 96.6035C128.11 96.6035 128.318 96.6916 128.392 96.8678C128.469 97.0441 128.508 97.6001 128.508 98.5359V99.0534L128.519 99.3438C128.526 99.4705 128.53 99.535 128.53 99.5375V100.033C128.53 100.564 128.318 100.986 127.895 101.299C127.677 101.457 127.397 101.578 127.055 101.66C126.716 101.744 126.379 101.786 126.044 101.786H125.889C125.536 101.786 125.193 101.743 124.862 101.656C124.534 101.569 124.37 101.459 124.37 101.325C124.37 101.171 124.549 101.094 124.906 101.094C124.943 101.094 125.046 101.1 125.215 101.112C125.385 101.125 125.578 101.131 125.795 101.131C126.245 101.131 126.619 101.04 126.917 100.859C127.219 100.681 127.37 100.445 127.37 100.152C127.37 100.01 127.307 99.9396 127.182 99.9396L126.42 99.9917C125.285 99.9917 124.534 99.6554 124.166 98.9827C124.033 98.7345 123.967 98.4775 123.967 98.2119ZM135.203 95.8811V96.0338C135.203 96.1777 135.334 96.3962 135.595 96.6891C135.683 96.7884 135.766 96.838 135.844 96.838C136.05 96.838 136.276 96.7052 136.523 96.4396C136.663 96.2882 136.733 96.1244 136.733 95.9481V95.8811C136.733 95.7396 136.67 95.6155 136.545 95.5088C136.42 95.3996 136.269 95.345 136.092 95.345H135.976C135.759 95.345 135.575 95.4095 135.424 95.5386C135.276 95.6676 135.203 95.7818 135.203 95.8811ZM134.457 98.4726V98.588C134.457 98.8337 134.569 99.041 134.794 99.2098C135.019 99.3786 135.287 99.463 135.601 99.463H135.772C136.092 99.463 136.405 99.391 136.711 99.247C136.869 99.1726 136.948 99.1093 136.948 99.0572V99.0385C136.948 99.0311 136.853 98.943 136.661 98.7742C136.473 98.6029 136.226 98.3696 135.921 98.0742C135.619 97.7763 135.448 97.6274 135.407 97.6274C135.263 97.6274 135.035 97.7676 134.722 98.0481C134.545 98.207 134.457 98.3485 134.457 98.4726ZM135.601 100.107C134.989 100.107 134.475 99.983 134.059 99.7348C133.647 99.4841 133.441 99.1664 133.441 98.7816C133.441 98.3969 133.695 97.9972 134.203 97.5827C134.468 97.3667 134.601 97.229 134.601 97.1694C134.601 97.1073 134.538 96.9696 134.413 96.7561C134.288 96.5426 134.225 96.3478 134.225 96.1715C134.225 95.834 134.4 95.5597 134.75 95.3487C135.1 95.1377 135.503 95.0322 135.959 95.0322C136.416 95.0322 136.794 95.1253 137.092 95.3114C137.394 95.4951 137.545 95.6987 137.545 95.9221C137.545 96.1455 137.486 96.3453 137.368 96.5215C137.254 96.6953 137.087 96.8777 136.865 97.0689C136.644 97.2575 136.534 97.4089 136.534 97.5231C136.534 97.6348 136.681 97.7999 136.976 98.0183C137.271 98.2343 137.484 98.3423 137.617 98.3423C137.753 98.3423 137.928 98.2306 138.141 98.0072C138.359 97.7813 138.552 97.6683 138.722 97.6683C138.942 97.6683 139.053 97.7378 139.053 97.8768C139.053 97.9662 138.985 98.1263 138.849 98.3572C138.712 98.5855 138.644 98.7717 138.644 98.9157C138.644 99.0572 138.742 99.2172 138.937 99.396C139.136 99.5722 139.235 99.6901 139.235 99.7497C139.235 99.8614 139.123 99.9172 138.898 99.9172C138.755 99.9172 138.576 99.8887 138.362 99.8316C138.153 99.772 138.007 99.7422 137.926 99.7422C137.845 99.7422 137.685 99.7733 137.445 99.8353L137.186 99.9061C136.659 100.04 136.182 100.107 135.755 100.107H135.601ZM148.057 99.1316C148.363 98.9876 148.516 98.804 148.516 98.5806C148.516 98.3547 148.407 98.1635 148.19 98.0072C147.976 97.8508 147.869 97.7577 147.869 97.7279C147.869 97.641 148.026 97.5976 148.339 97.5976C148.825 97.5976 149.169 97.677 149.372 97.8359C149.493 97.9327 149.554 98.1337 149.554 98.4391V98.6885C149.554 99.2446 149.401 99.6157 149.096 99.8018C148.974 99.8763 148.735 99.9445 148.378 100.007C148.02 100.066 147.635 100.096 147.223 100.096C146.803 100.096 146.369 100.034 145.919 99.9098C145.013 99.6616 144.404 99.1875 144.091 98.4875C143.936 98.1424 143.859 97.7639 143.859 97.3519C143.859 96.5799 144.15 95.9655 144.732 95.5088C145.041 95.2655 145.417 95.0769 145.858 94.9428C146.304 94.8088 146.79 94.7418 147.317 94.7418C147.844 94.7418 148.258 94.7889 148.56 94.8833C149.112 95.0545 149.388 95.2457 149.388 95.4567C149.388 95.6006 149.243 95.6726 148.952 95.6726C148.915 95.6726 148.707 95.6403 148.328 95.5758C147.952 95.5113 147.602 95.479 147.278 95.479C146.954 95.479 146.637 95.5373 146.328 95.654C146.019 95.7707 145.77 95.9146 145.582 96.0859C145.255 96.3838 145.091 96.8169 145.091 97.3854C145.091 97.9513 145.264 98.4142 145.61 98.7742C145.949 99.1217 146.479 99.2954 147.201 99.2954C147.547 99.2954 147.832 99.2408 148.057 99.1316ZM151.405 99.5151C151.405 99.458 151.449 99.2806 151.537 98.9827C151.633 98.66 151.681 98.3112 151.681 97.9364L151.692 97.6609V97.5231L151.697 97.3854V97.2476L151.703 97.1136C151.703 96.6568 151.69 96.3416 151.664 96.1678C151.638 95.9916 151.589 95.8253 151.515 95.6689C151.445 95.5125 151.41 95.3636 151.41 95.2221C151.41 94.9416 151.69 94.8013 152.25 94.8013H152.344C152.576 94.8013 152.749 94.8497 152.863 94.9466C152.977 95.0434 153.034 95.1513 153.034 95.2705V95.3263C153.034 95.3735 153.007 95.4939 152.951 95.6875C152.9 95.8811 152.874 96.0834 152.874 96.2944L152.863 96.4284L152.846 96.9832V97.3295L152.841 97.538C152.841 97.605 152.841 97.6721 152.841 97.7391L152.835 97.8061V98.0742L152.83 98.2082V98.6997C152.83 98.8586 152.854 99.0187 152.902 99.18C152.953 99.3414 152.979 99.4816 152.979 99.6008C152.979 99.7174 152.925 99.818 152.819 99.9024C152.716 99.9843 152.539 100.025 152.289 100.025H152.101C151.902 100.025 151.736 99.9892 151.604 99.9172C151.471 99.8453 151.405 99.7323 151.405 99.5784V99.5151ZM159.657 98.6587C159.657 99.0857 159.416 99.4307 158.934 99.6938C158.451 99.957 157.87 100.089 157.188 100.089C156.507 100.089 155.966 100.028 155.564 99.9061C155.166 99.782 154.883 99.643 154.714 99.4891C154.636 99.4171 154.598 99.3438 154.598 99.2694C154.598 99.1949 154.642 99.1267 154.73 99.0646C154.818 99.0025 154.91 98.9715 155.006 98.9715C155.102 98.9715 155.238 99.0013 155.415 99.0609L155.675 99.154C156.153 99.3203 156.605 99.4034 157.028 99.4034C157.452 99.4034 157.776 99.3538 158 99.2545C158.306 99.1204 158.459 98.9343 158.459 98.696C158.459 98.4552 158.3 98.2492 157.984 98.0779C157.748 97.9488 157.323 97.7949 156.708 97.6162C156.093 97.4375 155.662 97.2687 155.415 97.1098C154.988 96.8343 154.774 96.4955 154.774 96.0933C154.774 95.6912 155.008 95.3636 155.476 95.1104C155.94 94.8597 156.56 94.7343 157.337 94.7343H157.359C157.827 94.7343 158.216 94.7778 158.525 94.8646C158.838 94.9515 159.054 95.0446 159.171 95.1439C159.293 95.2407 159.354 95.3102 159.354 95.3524C159.354 95.4641 159.313 95.551 159.232 95.613C159.151 95.6751 159.044 95.7061 158.912 95.7061C158.893 95.7061 158.683 95.6527 158.282 95.546C157.884 95.4393 157.483 95.3859 157.078 95.3859C156.673 95.3859 156.352 95.4778 156.117 95.6614C156.006 95.7508 155.936 95.8575 155.907 95.9816C155.899 96.009 155.896 96.0363 155.896 96.0636C155.896 96.1629 155.938 96.2683 156.023 96.38C156.166 96.5612 156.636 96.771 157.431 97.0093C158.227 97.2451 158.751 97.4437 159.006 97.605C159.44 97.8781 159.657 98.1884 159.657 98.5359V98.6587Z" fill="#EFF4F5"/>
<path d="M38.5921 82.8221C38.4722 82.101 38.2258 81.5252 37.8529 81.0947C37.4933 80.6642 37.0271 80.449 36.4543 80.449C35.6418 80.449 34.9958 80.7611 34.5163 81.3853C34.0368 81.9988 33.7971 82.9513 33.7971 84.2428C33.7971 85.8033 34.17 86.9441 34.9159 87.6652C35.6618 88.3863 36.6275 88.7469 37.8129 88.7469C38.3857 88.7469 38.8918 88.6608 39.3314 88.4886C39.7709 88.3164 40.0839 88.1119 40.2704 87.8751C40.4302 87.972 40.5634 88.1173 40.67 88.311C40.7765 88.5047 40.8298 88.6823 40.8298 88.8437C40.8298 89.1128 40.6567 89.3926 40.3103 89.6832C39.9774 89.9738 39.4912 90.2213 38.8518 90.4258C38.2125 90.6195 37.4733 90.7164 36.6341 90.7164C35.462 90.7164 34.3898 90.4958 33.4175 90.0545C32.4585 89.6133 31.6926 88.946 31.1199 88.0527C30.5471 87.1594 30.2607 86.0778 30.2607 84.8078C30.2607 83.5701 30.5205 82.5208 31.0399 81.6598C31.5594 80.788 32.2853 80.1369 33.2177 79.7064C34.1634 79.2651 35.2622 79.0445 36.5143 79.0445C36.8073 79.0445 37.1403 79.0768 37.5132 79.1413C37.8862 79.2059 38.2125 79.292 38.4922 79.3996C38.692 79.3243 38.985 79.249 39.3713 79.1736C39.7576 79.0983 40.0573 79.0552 40.2704 79.0445C40.6567 79.8086 40.8498 81.0678 40.8498 82.8221H38.5921ZM47.8289 90.7003C46.5502 90.7003 45.4446 90.4635 44.5123 89.9899C43.5932 89.5056 42.8873 88.8222 42.3945 87.9397C41.9016 87.0572 41.6552 86.0347 41.6552 84.8724C41.6552 83.6562 41.9083 82.6122 42.4144 81.7405C42.9206 80.8579 43.6332 80.1853 44.5522 79.7225C45.4846 79.2597 46.5702 79.0283 47.8089 79.0283C49.0876 79.0283 50.1931 79.2705 51.1254 79.7548C52.0578 80.2391 52.7704 80.9225 53.2632 81.8051C53.7694 82.6768 54.0225 83.6992 54.0225 84.8724C54.0225 86.0778 53.7627 87.1217 53.2433 88.0043C52.7371 88.876 52.0179 89.5433 51.0855 90.0061C50.1531 90.4689 49.0676 90.7003 47.8289 90.7003ZM47.8289 89.5218C48.5614 89.5218 49.1542 89.1828 49.607 88.5047C50.0732 87.8267 50.3063 86.5944 50.3063 84.8078C50.3063 83.1073 50.0932 81.9181 49.667 81.24C49.2407 80.562 48.6413 80.223 47.8688 80.223C47.1362 80.223 46.5369 80.562 46.0707 81.24C45.6178 81.9181 45.3914 83.145 45.3914 84.9208C45.3914 86.6213 45.6045 87.8159 46.0307 88.5047C46.4703 89.1828 47.0696 89.5218 47.8289 89.5218ZM58.7165 88.65C58.7165 89.1989 59.2027 89.4733 60.175 89.4733C60.175 89.85 60.0218 90.189 59.7155 90.4904H55.5598C55.2667 90.1998 55.1202 89.8608 55.1202 89.4733C55.5864 89.4733 55.9327 89.4088 56.1591 89.2796C56.3856 89.1505 56.4988 88.9406 56.4988 88.65V81.0624C56.4988 80.5135 56.0126 80.2391 55.0403 80.2391C55.0403 80.0561 55.0802 79.8732 55.1602 79.6902C55.2401 79.5073 55.3466 79.3512 55.4798 79.222H58.257C58.6432 79.222 59.0295 79.3458 59.4158 79.5934C59.802 79.8301 60.1683 80.1638 60.5146 80.5943L65.0499 86.3899V81.0624C65.0499 80.7718 64.9301 80.562 64.6903 80.4328C64.4506 80.3037 64.0976 80.2391 63.6314 80.2391C63.6314 80.0454 63.6714 79.8624 63.7513 79.6902C63.8312 79.5073 63.9444 79.3512 64.0909 79.222H68.3465C68.4931 79.3512 68.6063 79.5073 68.6862 79.6902C68.7661 79.8732 68.8061 80.0561 68.8061 80.2391C68.3532 80.2391 68.0069 80.3037 67.7671 80.4328C67.5407 80.562 67.4275 80.7718 67.4275 81.0624V90.5873H66.6283C65.9757 90.5873 65.4962 90.5227 65.1898 90.3935C64.8835 90.2536 64.5904 90.0168 64.3107 89.6832L58.7165 82.8221V88.65ZM71.7357 86.519C71.9488 87.4231 72.3684 88.1388 72.9944 88.6662C73.6204 89.1828 74.3597 89.4411 75.2121 89.4411C75.7715 89.4411 76.1844 89.3119 76.4508 89.0536C76.7172 88.7953 76.8504 88.5101 76.8504 88.198C76.8504 87.7352 76.5974 87.3477 76.0912 87.0356C75.5984 86.7128 74.8858 86.3684 73.9534 86.0024C72.7014 85.5074 71.7557 84.9585 71.1164 84.3558C70.477 83.7531 70.1573 83.0212 70.1573 82.1602C70.1573 81.5252 70.3505 80.9763 70.7367 80.5135C71.1363 80.04 71.6758 79.6795 72.3551 79.4319C73.0344 79.1844 73.7936 79.0606 74.6327 79.0606C75.0723 79.0606 75.5451 79.0983 76.0513 79.1736C76.5707 79.2382 76.9836 79.3404 77.29 79.4803L78.9882 79.0606C79.228 79.3942 79.3811 79.857 79.4477 80.449C79.5143 81.0301 79.5476 81.7028 79.5476 82.4669V82.7091H77.8894C77.4098 81.1378 76.4708 80.3521 75.0723 80.3521C74.5395 80.3521 74.1399 80.4759 73.8735 80.7234C73.6071 80.9602 73.4739 81.2777 73.4739 81.6759C73.4739 81.9988 73.5805 82.2786 73.7936 82.5154C74.0067 82.7522 74.2731 82.9566 74.5928 83.1288C74.9258 83.2903 75.3653 83.4786 75.9114 83.6939C76.7505 84.0275 77.4498 84.3396 78.0092 84.6302C78.582 84.9208 79.0748 85.3082 79.4877 85.7926C79.9006 86.2661 80.1071 86.8311 80.1071 87.4877C80.1071 88.0904 79.9206 88.6392 79.5476 89.1343C79.1747 89.6186 78.6286 90.0061 77.9093 90.2967C77.2034 90.5873 76.3776 90.7326 75.4319 90.7326C74.353 90.7326 73.2808 90.5496 72.2152 90.1837L70.6768 90.7326C70.4237 90.3236 70.204 89.6886 70.0175 88.8276C69.831 87.9558 69.7378 87.1863 69.7378 86.519H71.7357ZM92.8093 86.0831C92.8093 87.5791 92.3698 88.7253 91.4907 89.5218C90.6249 90.3074 89.3329 90.7003 87.6147 90.7003C85.8832 90.7003 84.5246 90.3182 83.539 89.5541C82.5533 88.7899 82.0605 87.6868 82.0605 86.2446V81.0463C82.0605 80.7557 81.9673 80.5512 81.7808 80.4328C81.5943 80.3037 81.2746 80.2391 80.8218 80.2391C80.8218 79.8301 80.9749 79.4911 81.2813 79.222H86.2761C86.5824 79.4911 86.7356 79.8301 86.7356 80.2391C86.2827 80.2391 85.9631 80.3037 85.7766 80.4328C85.5901 80.5512 85.4969 80.7557 85.4969 81.0463V86.5836C85.4969 87.3585 85.6967 87.9827 86.0963 88.4563C86.5092 88.9191 87.1352 89.1505 87.9743 89.1505C88.8135 89.1505 89.4195 88.9406 89.7924 88.5209C90.1787 88.0904 90.3718 87.5307 90.3718 86.8419V81.0463C90.3718 80.7557 90.2586 80.5512 90.0322 80.4328C89.8191 80.3037 89.4595 80.2391 88.9533 80.2391C88.9533 79.8086 89.0998 79.4696 89.3929 79.222H93.7883C94.0814 79.4911 94.2279 79.8301 94.2279 80.2391C93.7217 80.2391 93.3554 80.3037 93.129 80.4328C92.9159 80.5512 92.8093 80.7557 92.8093 81.0463V86.0831ZM95.2046 90.4904C95.0581 90.3612 94.9449 90.2052 94.865 90.0222C94.7851 89.8393 94.7451 89.6509 94.7451 89.4572C95.198 89.4572 95.5176 89.398 95.7041 89.2796C95.8906 89.1612 95.9838 88.9514 95.9838 88.65V81.0624C95.9838 80.7611 95.8906 80.5512 95.7041 80.4328C95.5176 80.3037 95.198 80.2391 94.7451 80.2391C94.7451 80.0454 94.7851 79.8624 94.865 79.6902C94.9449 79.5073 95.0581 79.3512 95.2046 79.222H100.14C100.433 79.4696 100.579 79.8086 100.579 80.2391C100.126 80.2391 99.7932 80.3037 99.5801 80.4328C99.367 80.562 99.2604 80.7718 99.2604 81.0624V89.1182H99.9997C100.972 89.1182 101.691 88.8599 102.157 88.3433C102.637 87.8267 102.877 87.1002 102.877 86.1639H104.275C104.502 86.3038 104.682 86.6051 104.815 87.0679C104.948 87.5307 105.015 87.9827 105.015 88.424C105.015 89.102 104.868 89.6186 104.575 89.9738C104.282 90.3182 103.802 90.4904 103.136 90.4904H95.2046ZM116.864 79.0283C117.078 79.405 117.244 80.0884 117.364 81.0786C117.484 82.0687 117.544 82.8813 117.544 83.5163C117.371 83.5701 117.098 83.6131 116.725 83.6454C116.365 83.6777 116.039 83.6939 115.746 83.6939C115.666 82.8329 115.533 82.171 115.346 81.7082C115.173 81.2454 114.933 80.9279 114.627 80.7557C114.32 80.5835 113.921 80.4974 113.428 80.4974H113.088V88.5854C113.088 88.8868 113.262 89.1074 113.608 89.2473C113.954 89.3872 114.487 89.4572 115.206 89.4572C115.206 89.6509 115.166 89.8393 115.086 90.0222C115.006 90.2052 114.893 90.3612 114.747 90.4904H107.954C107.82 90.3612 107.714 90.2052 107.634 90.0222C107.554 89.8393 107.514 89.6509 107.514 89.4572C109.019 89.4572 109.772 89.1666 109.772 88.5854V80.4974H109.332C107.934 80.4974 107.128 81.5629 106.915 83.6939C105.982 83.6616 105.383 83.6024 105.117 83.5163C105.117 82.8813 105.177 82.0687 105.296 81.0786C105.416 80.0884 105.583 79.405 105.796 79.0283C106.409 79.0283 106.955 79.0929 107.434 79.222H115.226C115.732 79.0929 116.278 79.0283 116.864 79.0283ZM118.716 90.4904C118.583 90.3612 118.477 90.2052 118.397 90.0222C118.317 89.8393 118.277 89.6509 118.277 89.4572C118.716 89.4572 119.023 89.398 119.196 89.2796C119.382 89.1612 119.476 88.9514 119.476 88.65V81.0624C119.476 80.7611 119.382 80.5512 119.196 80.4328C119.023 80.3037 118.716 80.2391 118.277 80.2391C118.277 80.0561 118.317 79.8732 118.397 79.6902C118.477 79.5073 118.583 79.3512 118.716 79.222H123.571C123.705 79.3512 123.811 79.5073 123.891 79.6902C123.971 79.8732 124.011 80.0561 124.011 80.2391C123.571 80.2391 123.258 80.3037 123.072 80.4328C122.899 80.5512 122.812 80.7611 122.812 81.0624V88.65C122.812 88.9514 122.899 89.1612 123.072 89.2796C123.258 89.398 123.571 89.4572 124.011 89.4572C124.011 89.6509 123.971 89.8393 123.891 90.0222C123.811 90.2052 123.705 90.3612 123.571 90.4904H118.716ZM128.781 88.65C128.781 89.1989 129.267 89.4733 130.24 89.4733C130.24 89.85 130.086 90.189 129.78 90.4904H125.624C125.331 90.1998 125.185 89.8608 125.185 89.4733C125.651 89.4733 125.997 89.4088 126.224 89.2796C126.45 89.1505 126.563 88.9406 126.563 88.65V81.0624C126.563 80.5135 126.077 80.2391 125.105 80.2391C125.105 80.0561 125.145 79.8732 125.225 79.6902C125.305 79.5073 125.411 79.3512 125.544 79.222H128.322C128.708 79.222 129.094 79.3458 129.48 79.5934C129.867 79.8301 130.233 80.1638 130.579 80.5943L135.115 86.3899V81.0624C135.115 80.7718 134.995 80.562 134.755 80.4328C134.515 80.3037 134.162 80.2391 133.696 80.2391C133.696 80.0454 133.736 79.8624 133.816 79.6902C133.896 79.5073 134.009 79.3512 134.156 79.222H138.411C138.558 79.3512 138.671 79.5073 138.751 79.6902C138.831 79.8732 138.871 80.0561 138.871 80.2391C138.418 80.2391 138.071 80.3037 137.832 80.4328C137.605 80.562 137.492 80.7718 137.492 81.0624V90.5873H136.693C136.04 90.5873 135.561 90.5227 135.254 90.3935C134.948 90.2536 134.655 90.0168 134.375 89.6832L128.781 82.8221V88.65ZM146.435 90.7164C145.036 90.7164 143.818 90.4743 142.779 89.9899C141.74 89.5056 140.941 88.833 140.381 87.972C139.822 87.111 139.542 86.1262 139.542 85.0177C139.542 83.7262 139.815 82.6338 140.361 81.7405C140.921 80.8472 141.693 80.1745 142.679 79.7225C143.665 79.2705 144.803 79.0445 146.095 79.0445C146.935 79.0445 147.74 79.1629 148.513 79.3996C148.713 79.3243 148.999 79.249 149.372 79.1736C149.758 79.0983 150.058 79.0552 150.271 79.0445C150.657 79.8409 150.85 81.0571 150.85 82.693H148.912C148.779 82.0042 148.446 81.4714 147.914 81.0947C147.394 80.718 146.768 80.5297 146.035 80.5297C145.156 80.5297 144.464 80.8364 143.958 81.4499C143.465 82.0526 143.218 83.1019 143.218 84.5979C143.218 86.2553 143.465 87.4285 143.958 88.1173C144.45 88.8061 145.203 89.1505 146.215 89.1505C146.588 89.1505 146.901 89.1182 147.154 89.0536C147.407 88.989 147.62 88.8814 147.794 88.7307V86.8903C147.794 86.6105 147.64 86.4114 147.334 86.293C147.041 86.1639 146.575 86.0993 145.936 86.0993C145.936 85.9056 145.982 85.6796 146.075 85.4213C146.169 85.163 146.282 84.9746 146.415 84.8562H150.731C151.25 84.8562 151.61 84.98 151.81 85.2275C152.009 85.4751 152.109 85.7118 152.109 85.9379C152.109 86.0455 152.076 86.1423 152.009 86.2284C151.53 86.2284 151.157 86.2715 150.89 86.3576V88.2141C150.89 88.5585 150.964 88.8007 151.11 88.9406C151.203 89.0159 151.25 89.1128 151.25 89.2312C151.25 89.4249 151.03 89.6402 150.591 89.8769C150.151 90.1137 149.558 90.3128 148.813 90.4743C148.08 90.6357 147.287 90.7164 146.435 90.7164ZM157.134 90.4904C157.001 90.3612 156.894 90.2052 156.814 90.0222C156.734 89.8393 156.694 89.6509 156.694 89.4572C157.134 89.4572 157.44 89.398 157.614 89.2796C157.8 89.1612 157.893 88.9514 157.893 88.65V81.0624C157.893 80.7611 157.8 80.5512 157.614 80.4328C157.44 80.3037 157.134 80.2391 156.694 80.2391C156.694 80.0561 156.734 79.8732 156.814 79.6902C156.894 79.5073 157.001 79.3512 157.134 79.222H161.989C162.122 79.3512 162.229 79.5073 162.309 79.6902C162.389 79.8732 162.429 80.0561 162.429 80.2391C161.989 80.2391 161.676 80.3037 161.489 80.4328C161.316 80.5512 161.23 80.7611 161.23 81.0624V88.65C161.23 88.9514 161.316 89.1612 161.489 89.2796C161.676 89.398 161.989 89.4572 162.429 89.4572C162.429 89.6509 162.389 89.8393 162.309 90.0222C162.229 90.2052 162.122 90.3612 161.989 90.4904H157.134ZM167.198 88.65C167.198 89.1989 167.684 89.4733 168.657 89.4733C168.657 89.85 168.503 90.189 168.197 90.4904H164.041C163.748 90.1998 163.602 89.8608 163.602 89.4733C164.068 89.4733 164.414 89.4088 164.641 89.2796C164.867 89.1505 164.98 88.9406 164.98 88.65V81.0624C164.98 80.5135 164.494 80.2391 163.522 80.2391C163.522 80.0561 163.562 79.8732 163.642 79.6902C163.722 79.5073 163.828 79.3512 163.961 79.222H166.739C167.125 79.222 167.511 79.3458 167.897 79.5934C168.284 79.8301 168.65 80.1638 168.996 80.5943L173.532 86.3899V81.0624C173.532 80.7718 173.412 80.562 173.172 80.4328C172.932 80.3037 172.579 80.2391 172.113 80.2391C172.113 80.0454 172.153 79.8624 172.233 79.6902C172.313 79.5073 172.426 79.3512 172.572 79.222H176.828C176.975 79.3512 177.088 79.5073 177.168 79.6902C177.248 79.8732 177.288 80.0561 177.288 80.2391C176.835 80.2391 176.488 80.3037 176.249 80.4328C176.022 80.562 175.909 80.7718 175.909 81.0624V90.5873H175.11C174.457 90.5873 173.978 90.5227 173.671 90.3935C173.365 90.2536 173.072 90.0168 172.792 89.6832L167.198 82.8221V88.65ZM186.291 82.8221C186.171 82.101 185.925 81.5252 185.552 81.0947C185.192 80.6642 184.726 80.449 184.153 80.449C183.341 80.449 182.695 80.7611 182.215 81.3853C181.736 81.9988 181.496 82.9513 181.496 84.2428C181.496 85.8033 181.869 86.9441 182.615 87.6652C183.361 88.3863 184.326 88.7469 185.512 88.7469C186.085 88.7469 186.591 88.6608 187.03 88.4886C187.47 88.3164 187.783 88.1119 187.969 87.8751C188.129 87.972 188.262 88.1173 188.369 88.311C188.476 88.5047 188.529 88.6823 188.529 88.8437C188.529 89.1128 188.356 89.3926 188.009 89.6832C187.676 89.9738 187.19 90.2213 186.551 90.4258C185.911 90.6195 185.172 90.7164 184.333 90.7164C183.161 90.7164 182.089 90.4958 181.116 90.0545C180.157 89.6133 179.392 88.946 178.819 88.0527C178.246 87.1594 177.96 86.0778 177.96 84.8078C177.96 83.5701 178.219 82.5208 178.739 81.6598C179.258 80.788 179.984 80.1369 180.917 79.7064C181.862 79.2651 182.961 79.0445 184.213 79.0445C184.506 79.0445 184.839 79.0768 185.212 79.1413C185.585 79.2059 185.911 79.292 186.191 79.3996C186.391 79.3243 186.684 79.249 187.07 79.1736C187.457 79.0983 187.756 79.0552 187.969 79.0445C188.356 79.8086 188.549 81.0678 188.549 82.8221H186.291ZM193.47 89.102C193.47 89.5756 193.283 89.963 192.91 90.2644C192.537 90.555 192.051 90.7003 191.452 90.7003C190.839 90.7003 190.346 90.555 189.973 90.2644C189.6 89.963 189.414 89.5756 189.414 89.102C189.414 88.6177 189.6 88.2303 189.973 87.9397C190.346 87.6491 190.839 87.5038 191.452 87.5038C192.051 87.5038 192.537 87.6491 192.91 87.9397C193.283 88.2303 193.47 88.6177 193.47 89.102Z" fill="#EFF4F5"/>
</svg>
