<svg width="269" height="121" viewBox="0 0 269 121" fill="none" xmlns="http://www.w3.org/2000/svg">
<path d="M40.0406 24.0212H44.2083V39.3673V40.3673H45.2083H67.4205L76.3543 49.0223V59.444L67.1337 68.0747H61.9291V51.8263V50.8263H60.9291H40.0417L30.7842 42.1611V32.6529L40.0406 24.0212ZM75.0194 31.4705V34.9315H61.9291V31.3157V30.3157H60.9291H48.8037V24.0212H67.0954L75.0194 31.4705ZM30.7842 59.4943V56.2621H45.1723V60.7454V61.7454H46.1723H57.3337V68.0747H38.4981L30.7842 59.4943Z" fill="#D89216" stroke="black" stroke-width="2"/>
<path d="M185.858 67.3693H168.407V60.1724H179.646H180.646V59.1724V31.5127V30.5127H179.646H168.407V23.3159H185.858L195.176 31.9494V58.7357L185.858 67.3693ZM149.303 23.3159H163.795V67.3693H149.303V23.3159Z" fill="#D89216" stroke="black" stroke-width="2"/>
<path d="M243.577 56.243H226.15V49.0107H237.327H238.327V48.0107V32.2188V31.2188H237.327H226.15V24.0212H243.578L253.02 32.6592V47.5714L243.577 56.243ZM207.029 68.0783V24.0212H221.494V68.0783H207.029Z" fill="#D89216" stroke="black" stroke-width="2"/>
<path d="M257.666 16.8799C257.666 19.8254 260.054 22.2132 263 22.2132C265.945 22.2132 268.333 19.8254 268.333 16.8799C268.333 13.9344 265.945 11.5465 263 11.5465C260.054 11.5465 257.666 13.9344 257.666 16.8799ZM53.6377 17.8799H263V15.8799H53.6377V17.8799Z" fill="black"/>
<path d="M233.673 73.5654C233.673 75.0382 234.867 76.2321 236.339 76.2321C237.812 76.2321 239.006 75.0382 239.006 73.5654C239.006 72.0927 237.812 70.8988 236.339 70.8988C234.867 70.8988 233.673 72.0927 233.673 73.5654ZM26.9775 74.0654H236.339V73.0654H26.9775V74.0654Z" fill="black"/>
<path d="M24.0146 96.5763C21.0691 96.6016 18.7004 99.0098 18.7238 101.955C18.7471 104.901 21.1538 107.268 24.0992 107.243C27.0447 107.217 29.4134 104.809 29.39 101.864C29.3667 98.9184 26.96 96.5511 24.0146 96.5763ZM22.6106 45.7039L23.0569 101.918L25.0569 101.901L24.6105 45.6867L22.6106 45.7039Z" fill="black"/>
<path d="M117.209 20.276C121.176 19.5202 123.169 23.7401 123.67 25.9445H108.646L112.251 24.6455C112.251 23.5039 113.243 21.0318 117.209 20.276Z" fill="#011F26" stroke="#D89216" stroke-width="2"/>
<path d="M112.804 27.3621H122.72C122.369 28.4643 120.917 30.6687 117.912 30.6687C114.907 30.6687 113.254 28.4643 112.804 27.3621Z" fill="#011F26" stroke="#D89216"/>
<path d="M86.9626 29.4874H84.1079V31.495H86.9626V29.4874Z" fill="#011F26"/>
<path d="M103.039 32.6759H90.5684V27.9521H103.039V32.6759Z" fill="#011F26"/>
<path d="M109.499 31.495H107.546V29.015H109.499V31.495Z" fill="#011F26"/>
<path d="M101.536 36.2188L99.8837 36.6912V38.1083L113.105 66.6873L111.302 67.632L99.433 40.1159H98.0808V68.3406H95.9774V40.1159H94.7754L82.9061 67.632L81.7041 66.6873L94.0242 38.1083V36.6912L92.2212 36.2188V35.3921H101.536V36.2188Z" fill="#011F26"/>
<path d="M86.9626 29.4874H84.1079V31.495H86.9626V29.4874Z" stroke="#D89216"/>
<path d="M103.039 32.6759H90.5684V27.9521H103.039V32.6759Z" stroke="#D89216"/>
<path d="M109.499 31.495H107.546V29.015H109.499V31.495Z" stroke="#D89216"/>
<path d="M101.536 36.2188L99.8837 36.6912V38.1083L113.105 66.6873L111.302 67.632L99.433 40.1159H98.0808V68.3406H95.9774V40.1159H94.7754L82.9061 67.632L81.7041 66.6873L94.0242 38.1083V36.6912L92.2212 36.2188V35.3921H101.536V36.2188Z" stroke="#D89216"/>
<path d="M122.966 32.283C120.047 33.0388 118.756 34.8811 118.475 35.7078C118.475 36.4557 118.728 37.5028 119.738 35.7078C120.749 33.9127 123.433 33.464 124.65 33.464C125.866 33.3065 128.635 33.7474 129.982 36.7706C131.329 39.7939 128.204 44.5649 126.474 46.5725L132.508 53.6582L136.577 62.3972H141.769L140.646 49.8792C137.606 45.4309 131.329 36.251 130.543 35.1173C129.757 33.9836 128.719 33.2278 128.298 32.9916C127.737 32.4405 125.884 31.5272 122.966 32.283Z" fill="#011F26"/>
<path d="M129.701 55.5477L125.912 50.8239L121.282 55.5477V62.2791H126.614L127.035 58.2639L129.701 55.5477Z" fill="#011F26"/>
<path d="M125.211 35.4716C122.404 35.3771 121.235 36.7706 121.001 37.4792V40.4316C121.001 41.5653 120.159 43.0297 119.738 43.6201C119.364 44.0138 118.026 44.9428 115.669 45.5096C112.722 46.2182 111.038 45.982 109.775 46.4544C108.765 46.8323 108.606 47.5566 108.653 47.8715C108.933 48.5014 110.421 49.5485 114.125 48.6982C118.756 47.6354 118.756 47.6354 120.72 46.6906C122.685 45.7458 122.545 45.982 124.65 44.5649C126.333 43.4312 127.409 41.022 127.737 39.9592C128.064 38.5027 128.017 35.5661 125.211 35.4716Z" fill="#011F26"/>
<path d="M126.614 65.4677V68.302H118.475V67.2391L120.159 66.6486L121.282 65.4677H126.614Z" fill="#011F26"/>
<path d="M141.769 68.302V65.4677H136.577L135.595 66.6486L133.911 67.2391V68.302H141.769Z" fill="#011F26"/>
<path d="M122.966 32.283C120.047 33.0388 118.756 34.8811 118.475 35.7078C118.475 36.4557 118.728 37.5028 119.738 35.7078C120.749 33.9127 123.433 33.464 124.65 33.464C125.866 33.3065 128.635 33.7474 129.982 36.7706C131.329 39.7939 128.204 44.5649 126.474 46.5725L132.508 53.6582L136.577 62.3972H141.769L140.646 49.8792C137.606 45.4309 131.329 36.251 130.543 35.1173C129.757 33.9836 128.719 33.2278 128.298 32.9916C127.737 32.4405 125.884 31.5272 122.966 32.283Z" stroke="#D89216"/>
<path d="M129.701 55.5477L125.912 50.8239L121.282 55.5477V62.2791H126.614L127.035 58.2639L129.701 55.5477Z" stroke="#D89216"/>
<path d="M125.211 35.4716C122.404 35.3771 121.235 36.7706 121.001 37.4792V40.4316C121.001 41.5653 120.159 43.0297 119.738 43.6201C119.364 44.0138 118.026 44.9428 115.669 45.5096C112.722 46.2182 111.038 45.982 109.775 46.4544C108.765 46.8323 108.606 47.5566 108.653 47.8715C108.933 48.5014 110.421 49.5485 114.125 48.6982C118.756 47.6354 118.756 47.6354 120.72 46.6906C122.685 45.7458 122.545 45.982 124.65 44.5649C126.333 43.4312 127.409 41.022 127.737 39.9592C128.064 38.5027 128.017 35.5661 125.211 35.4716Z" stroke="#D89216"/>
<path d="M126.614 65.4677V68.302H118.475V67.2391L120.159 66.6486L121.282 65.4677H126.614Z" stroke="#D89216"/>
<path d="M141.769 68.302V65.4677H136.577L135.595 66.6486L133.911 67.2391V68.302H141.769Z" stroke="#D89216"/>
<path d="M57.5679 8.02284L47.0437 18.0609C41.6553 14.3763 34.6017 15.0298 31.7485 15.8171C28.521 16.3682 21.533 19.1946 19.4 26.0914C17.2671 32.9881 21.7855 38.019 24.3113 39.6723L14.4887 49.8284L10.1387 46.8761L14.2081 42.2704L9.57744 36.3656L2.98226 36.838L2 27.5085L9.01615 26.918L11.9629 19.5961L6.49033 15.9352L14.2081 8.61332L19.6807 12.2743L28.1001 8.14094L27.3984 3.06285L39.4662 2L40.1678 7.31427L48.8679 9.32189L53.2179 5.30666L57.5679 8.02284Z" fill="#D89216" stroke="black" stroke-width="2"/>
<path d="M47.1842 19.0061C48.2692 19.0061 49.1488 18.2659 49.1488 17.3528C49.1488 16.4397 48.2692 15.6995 47.1842 15.6995C46.0993 15.6995 45.2197 16.4397 45.2197 17.3528C45.2197 18.2659 46.0993 19.0061 47.1842 19.0061Z" fill="black"/>
<path d="M53.6393 7.19606C54.7243 7.19606 55.6038 6.45584 55.6038 5.54273C55.6038 4.62963 54.7243 3.8894 53.6393 3.8894C52.5543 3.8894 51.6748 4.62963 51.6748 5.54273C51.6748 6.45584 52.5543 7.19606 53.6393 7.19606Z" fill="black"/>
<path d="M40.7301 8.84914C41.8151 8.84914 42.6947 8.10892 42.6947 7.19581C42.6947 6.2827 41.8151 5.54248 40.7301 5.54248C39.6452 5.54248 38.7656 6.2827 38.7656 7.19581C38.7656 8.10892 39.6452 8.84914 40.7301 8.84914Z" fill="black"/>
<path d="M27.82 5.30666C28.905 5.30666 29.7845 4.56644 29.7845 3.65333C29.7845 2.74022 28.905 2 27.82 2C26.735 2 25.8555 2.74022 25.8555 3.65333C25.8555 4.56644 26.735 5.30666 27.82 5.30666Z" fill="black"/>
<path d="M19.6803 13.8096C20.7653 13.8096 21.6449 13.0694 21.6449 12.1563C21.6449 11.2432 20.7653 10.503 19.6803 10.503C18.5954 10.503 17.7158 11.2432 17.7158 12.1563C17.7158 13.0694 18.5954 13.8096 19.6803 13.8096Z" fill="black"/>
<path d="M6.77018 17.352C7.85516 17.352 8.7347 16.6118 8.7347 15.6987C8.7347 14.7856 7.85516 14.0454 6.77018 14.0454C5.68521 14.0454 4.80566 14.7856 4.80566 15.6987C4.80566 16.6118 5.68521 17.352 6.77018 17.352Z" fill="black"/>
<path d="M8.736 27.9807C9.82098 27.9807 10.7005 27.2405 10.7005 26.3274C10.7005 25.4143 9.82098 24.6741 8.736 24.6741C7.65103 24.6741 6.77148 25.4143 6.77148 26.3274C6.77148 27.2405 7.65103 27.9807 8.736 27.9807Z" fill="black"/>
<path d="M3.96452 38.373C5.04949 38.373 5.92904 37.6328 5.92904 36.7197C5.92904 35.8066 5.04949 35.0664 3.96452 35.0664C2.87955 35.0664 2 35.8066 2 36.7197C2 37.6328 2.87955 38.373 3.96452 38.373Z" fill="black"/>
<path d="M13.7868 43.8059C14.8718 43.8059 15.7513 43.0657 15.7513 42.1526C15.7513 41.2395 14.8718 40.4993 13.7868 40.4993C12.7018 40.4993 11.8223 41.2395 11.8223 42.1526C11.8223 43.0657 12.7018 43.8059 13.7868 43.8059Z" fill="black"/>
<path d="M23.8913 41.6802C24.9763 41.6802 25.8558 40.94 25.8558 40.0269C25.8558 39.1138 24.9763 38.3736 23.8913 38.3736C22.8063 38.3736 21.9268 39.1138 21.9268 40.0269C21.9268 40.94 22.8063 41.6802 23.8913 41.6802Z" fill="black"/>
<path d="M32.6338 98.4134C32.6338 98.3576 32.6754 98.1839 32.7587 97.8924C32.8489 97.5765 32.894 97.2352 32.894 96.8684L32.9044 96.5988V96.4639L32.9097 96.3291V96.1943L32.9149 96.0631C32.9149 95.6161 32.9027 95.3076 32.8784 95.1375C32.8541 94.9651 32.8073 94.8023 32.7379 94.6492C32.672 94.4962 32.639 94.3504 32.639 94.212C32.639 93.9375 32.9027 93.8002 33.4301 93.8002H33.5186C33.7372 93.8002 33.9003 93.8476 34.0079 93.9423C34.1155 94.0371 34.1692 94.1427 34.1692 94.2593V94.314C34.1692 94.3602 34.1432 94.478 34.0912 94.6675C34.0426 94.8569 34.0183 95.0549 34.0183 95.2614L34.0079 95.3926L33.9923 95.9356V96.2744L33.9871 96.4785C33.9871 96.5441 33.9871 96.6097 33.9871 96.6753L33.9819 96.7409V97.0032L33.9767 97.1344V97.6154C33.9767 97.7709 33.9992 97.9276 34.0443 98.0855C34.0929 98.2434 34.1172 98.3806 34.1172 98.4972C34.1172 98.6114 34.0669 98.7098 33.9662 98.7924C33.8691 98.8726 33.7025 98.9126 33.4666 98.9126H33.2896C33.1022 98.9126 32.9461 98.8774 32.8212 98.807C32.6962 98.7365 32.6338 98.626 32.6338 98.4754V98.4134ZM35.8088 95.8044C35.847 95.61 35.9545 95.5129 36.1315 95.5129C36.3085 95.5129 36.4698 95.5542 36.6155 95.6367C36.7613 95.7193 36.855 95.7606 36.8966 95.7606C36.9383 95.7606 37.051 95.7254 37.2349 95.655C37.4223 95.5821 37.5386 95.5384 37.5837 95.5238C37.8647 95.4363 38.1475 95.3926 38.4321 95.3926C38.9595 95.3926 39.3499 95.5153 39.6032 95.7606C39.86 96.006 39.9883 96.4506 39.9883 97.0943C39.9883 97.2255 40.0126 97.4988 40.0612 97.9142C40.1133 98.3272 40.1393 98.5398 40.1393 98.5519C40.1393 98.7098 40.0092 98.7888 39.7489 98.7888C39.4887 98.7888 39.3152 98.6879 39.2284 98.4863C39.1451 98.2847 39.0705 97.9021 39.0046 97.3385C38.9422 96.7725 38.871 96.4238 38.7912 96.2927C38.642 96.0449 38.3696 95.921 37.974 95.921C37.7763 95.921 37.5871 95.9611 37.4067 96.0412C37.2297 96.1214 37.0892 96.2392 36.9851 96.3947C36.8845 96.5502 36.8012 96.9182 36.7353 97.4988C36.6728 98.0794 36.6225 98.4195 36.5843 98.5191C36.5462 98.6187 36.4854 98.6952 36.4021 98.7487C36.3224 98.7997 36.2096 98.8252 36.0638 98.8252C35.9216 98.8252 35.8209 98.8021 35.7619 98.756C35.7064 98.7074 35.6787 98.6053 35.6787 98.4499V98.3588L35.6839 98.264L35.6995 97.7903C35.6995 97.7271 35.6995 97.664 35.6995 97.6008L35.7099 97.3166C35.7099 96.6583 35.7429 96.1542 35.8088 95.8044ZM42.1328 98.5264C41.8899 98.2689 41.7684 97.8486 41.7684 97.2656C41.7684 96.6826 41.7181 96.2854 41.6175 96.074C41.5758 95.9866 41.4926 95.9088 41.3677 95.8408C41.2462 95.7728 41.1855 95.6817 41.1855 95.5675C41.1855 95.4533 41.2514 95.361 41.3833 95.2906C41.411 95.276 41.4769 95.2481 41.581 95.2068C41.6852 95.163 41.7545 95.123 41.7892 95.0865C41.8239 95.0525 41.8604 94.9359 41.8985 94.7367C41.9818 94.3383 42.1345 94.1391 42.3566 94.1391H42.4347C42.6116 94.1391 42.7365 94.1889 42.8094 94.2885C42.8476 94.3371 42.8858 94.4658 42.9239 94.6748C42.9655 94.8837 43.0211 95.0209 43.0905 95.0865C43.1599 95.1497 43.3368 95.2165 43.6214 95.2869C43.9059 95.3574 44.0482 95.4436 44.0482 95.5456C44.0482 95.6453 43.9319 95.7206 43.6995 95.7716C43.3525 95.8469 43.1443 95.9319 43.0749 96.0267C42.9118 96.2477 42.8302 96.6935 42.8302 97.364C42.8302 97.6749 42.8805 97.8887 42.9812 98.0053C43.0818 98.1195 43.2223 98.2009 43.4028 98.2494C43.4201 98.2543 43.4913 98.2701 43.6162 98.2968C43.7446 98.3211 43.8469 98.3539 43.9233 98.3952C43.9996 98.4341 44.0378 98.4997 44.0378 98.592C44.0378 98.6819 43.9753 98.7572 43.8504 98.8179C43.7185 98.8786 43.5346 98.909 43.2987 98.909C42.7678 98.909 42.3791 98.7815 42.1328 98.5264ZM47.6136 96.7919C47.8356 96.7919 48.0265 96.7567 48.1861 96.6862C48.2728 96.6473 48.3162 96.5696 48.3162 96.453V96.4311C48.3162 96.2562 48.2399 96.1093 48.0872 95.9902C47.9345 95.8687 47.7177 95.808 47.4366 95.808H47.3741C47.0584 95.808 46.7669 95.8906 46.4997 96.0558C46.236 96.221 46.1041 96.4299 46.1041 96.6826V96.7445C46.1041 96.8198 46.1857 96.8575 46.3488 96.8575L46.4008 96.8647H46.5882L46.6194 96.8611L46.9057 96.8465L46.9421 96.8429L47.1347 96.832C47.159 96.8295 47.1867 96.8271 47.218 96.8247C47.2492 96.8222 47.3117 96.8162 47.4054 96.8065C47.5025 96.7967 47.5719 96.7919 47.6136 96.7919ZM47.3377 98.9746H47.218C46.8675 98.9722 46.5483 98.9272 46.2603 98.8398C45.7085 98.6697 45.3355 98.3782 45.1412 97.9652C45.0337 97.7344 44.9798 97.5012 44.9798 97.2656V97.1016C44.9833 96.8563 45.051 96.6121 45.1829 96.3692C45.4535 95.8785 45.8994 95.5529 46.5205 95.3926C46.812 95.3197 47.1104 95.2833 47.4158 95.2833H47.5303C48.023 95.2833 48.4325 95.3902 48.7586 95.6039C49.0848 95.8153 49.2479 96.1044 49.2479 96.4712V96.5441C49.2479 96.8016 49.1299 96.9826 48.8939 97.087C48.7135 97.1672 48.2989 97.2401 47.65 97.3057C47.0046 97.3713 46.6177 97.4186 46.4893 97.4478C46.2811 97.4939 46.177 97.5607 46.177 97.6482C46.177 97.8693 46.3349 98.0539 46.6506 98.2021C46.8346 98.2871 47.1208 98.3296 47.5094 98.3296C47.6691 98.3296 47.9172 98.2968 48.2538 98.2312C48.5938 98.1632 48.8072 98.1292 48.8939 98.1292C49.0987 98.1292 49.2011 98.2021 49.2011 98.3478C49.2011 98.4936 49.0015 98.6345 48.6025 98.7705C48.2069 98.9066 47.7853 98.9746 47.3377 98.9746ZM53.7085 96.832L53.6981 96.6534C53.6981 96.4202 53.6252 96.2429 53.4795 96.1214C53.3338 95.9999 53.129 95.9392 52.8653 95.9392H52.6727C52.5027 95.9392 52.3275 95.9744 52.147 96.0449C51.9701 96.1153 51.8278 96.2064 51.7202 96.3182C51.5086 96.5417 51.4027 96.8684 51.4027 97.2984L51.4079 97.3348C51.4079 97.6676 51.4808 97.9191 51.6265 98.0891C51.8209 98.3175 52.0759 98.4317 52.3917 98.4317H52.5322C52.8827 98.4317 53.1637 98.3442 53.3754 98.1693C53.5871 97.9944 53.6929 97.7211 53.6929 97.3494C53.6998 97.3008 53.7033 97.2644 53.7033 97.2401L53.7137 97.0542V96.8684L53.7085 96.832ZM50.5335 97.1381V96.9413C50.5335 96.7348 50.5873 96.5234 50.6949 96.3072C50.8059 96.0886 50.9378 95.9161 51.0904 95.7898C51.4305 95.508 51.9267 95.3671 52.5791 95.3671C52.8254 95.3671 53.0926 95.3999 53.3806 95.4655C53.6686 95.5311 53.9132 95.5639 54.1145 95.5639C54.4372 95.5639 54.6333 95.6501 54.7026 95.8226C54.7755 95.9951 54.812 96.5392 54.812 97.4551V97.9616L54.8224 98.2458C54.8293 98.3697 54.8328 98.4329 54.8328 98.4353V98.9199C54.8328 99.4398 54.6333 99.8528 54.2342 100.159C54.0295 100.314 53.7658 100.432 53.4431 100.512C53.1238 100.595 52.8063 100.636 52.4905 100.636H52.3448C52.0117 100.636 51.689 100.594 51.3767 100.509C51.0679 100.424 50.9135 100.316 50.9135 100.184C50.9135 100.034 51.0818 99.9585 51.4183 99.9585C51.453 99.9585 51.5502 99.9645 51.7098 99.9767C51.8694 99.9888 52.0516 99.9949 52.2563 99.9949C52.6797 99.9949 53.0319 99.9062 53.3129 99.7289C53.5975 99.554 53.7397 99.3232 53.7397 99.0365C53.7397 98.8981 53.6808 98.8288 53.5628 98.8288L52.8445 98.8798C51.7757 98.8798 51.0679 98.5507 50.7209 97.8924C50.596 97.6494 50.5335 97.398 50.5335 97.1381ZM56.3786 95.9538C56.3786 95.7862 56.4081 95.6623 56.4671 95.5821C56.5261 95.4995 56.6354 95.4582 56.795 95.4582C56.9546 95.4582 57.1385 95.4983 57.3468 95.5784C57.5549 95.6586 57.6712 95.6987 57.6955 95.6987C57.7233 95.6987 57.7822 95.6768 57.8725 95.6331C58.209 95.4679 58.5075 95.3853 58.7677 95.3853H58.9134C59.0731 95.3853 59.2067 95.4157 59.3142 95.4764C59.4254 95.5372 59.4808 95.6234 59.4808 95.7351C59.4808 95.8445 59.4112 95.9246 59.2727 95.9756C59.2135 95.9975 59.0904 96.0157 58.903 96.0303C58.7156 96.0449 58.5317 96.0765 58.3513 96.125C58.1743 96.1736 58.0164 96.2684 57.8777 96.4093C57.6764 96.6158 57.5758 97.0178 57.5758 97.6154L57.5549 98.0235L57.5445 98.2567C57.5445 98.4729 57.4942 98.6321 57.3936 98.7341C57.2964 98.8361 57.1299 98.8871 56.8939 98.8871H56.8158C56.6077 98.8871 56.481 98.8131 56.4359 98.6649C56.4324 98.6527 56.4307 98.4219 56.4307 97.9725V97.2401L56.4255 97.1781V97.0579L56.4203 96.9959C56.4203 96.9546 56.4203 96.9133 56.4203 96.872L56.3995 96.402L56.3786 96.0631V95.9538ZM61.2764 97.9324C61.2764 98.0879 61.3841 98.2179 61.5991 98.3223C61.7414 98.3928 61.9426 98.428 62.203 98.428H62.2342C62.2965 98.4207 62.3626 98.4171 62.4319 98.4171C62.6646 98.4171 62.8727 98.3442 63.0566 98.1984C63.2439 98.0527 63.3377 97.913 63.3377 97.7794L63.3481 97.7357L63.3636 97.5425V97.353C63.3636 97.2632 63.3201 97.2024 63.2335 97.1709C63.1501 97.1368 62.9889 97.1198 62.7496 97.1198H62.6766L62.6401 97.1235H62.5724L62.3538 97.1344C62.2811 97.1417 62.2219 97.1453 62.1769 97.1453C61.9272 97.1453 61.7119 97.2 61.5314 97.3093C61.3545 97.4186 61.266 97.5644 61.266 97.7466V97.8523C61.273 97.8911 61.2764 97.9179 61.2764 97.9324ZM60.9068 95.9465C60.6779 95.9465 60.5633 95.859 60.5633 95.6841C60.5633 95.5627 60.6832 95.4606 60.9225 95.378C61.3041 95.2444 61.7119 95.1776 62.1457 95.1776H62.3954C62.7424 95.1776 63.067 95.2213 63.3689 95.3088C63.6743 95.3963 63.9083 95.5311 64.0714 95.7133C64.2798 95.9441 64.3837 96.4554 64.3837 97.2474C64.3837 97.6652 64.4045 97.9737 64.4463 98.1729C64.4914 98.3721 64.514 98.5179 64.514 98.6102C64.514 98.7924 64.3475 98.8835 64.0144 98.8835C63.8651 98.8835 63.7263 98.8519 63.5978 98.7888C63.4694 98.7256 63.367 98.694 63.2908 98.694C63.2143 98.694 63.0115 98.7402 62.6819 98.8325C62.3522 98.9248 62.0207 98.971 61.6876 98.971C61.2191 98.971 60.8514 98.8677 60.5843 98.6612C60.3205 98.4547 60.1886 98.2009 60.1886 97.8996V97.8158C60.1886 97.4466 60.4178 97.1611 60.8756 96.9595C61.1741 96.8283 61.6338 96.7384 62.255 96.6899C62.8796 96.6413 63.2093 96.6024 63.2439 96.5733C63.289 96.5368 63.3116 96.4749 63.3116 96.3874C63.3116 96.3607 63.3097 96.3327 63.3063 96.3036C63.2612 95.9586 62.9143 95.7849 62.2654 95.7825C62.0261 95.7825 61.7641 95.8104 61.4795 95.8663C61.1949 95.9198 61.0041 95.9465 60.9068 95.9465ZM66.5959 98.5264C66.3531 98.2689 66.2316 97.8486 66.2316 97.2656C66.2316 96.6826 66.1812 96.2854 66.0807 96.074C66.0389 95.9866 65.9557 95.9088 65.8308 95.8408C65.7092 95.7728 65.6485 95.6817 65.6485 95.5675C65.6485 95.4533 65.7146 95.361 65.8465 95.2906C65.8742 95.276 65.94 95.2481 66.0442 95.2068C66.1482 95.163 66.2177 95.123 66.2524 95.0865C66.287 95.0525 66.3235 94.9359 66.3616 94.7367C66.445 94.3383 66.5977 94.1391 66.8197 94.1391H66.8978C67.0747 94.1391 67.1997 94.1889 67.2725 94.2885C67.3106 94.3371 67.349 94.4658 67.3871 94.6748C67.4286 94.8837 67.4841 95.0209 67.5536 95.0865C67.6229 95.1497 67.7999 95.2165 68.0845 95.2869C68.3691 95.3574 68.5114 95.4436 68.5114 95.5456C68.5114 95.6453 68.3949 95.7206 68.1626 95.7716C67.8156 95.8469 67.6075 95.9319 67.5379 96.0267C67.3748 96.2477 67.2933 96.6935 67.2933 97.364C67.2933 97.6749 67.3436 97.8887 67.4444 98.0053C67.5448 98.1195 67.6855 98.2009 67.866 98.2494C67.8833 98.2543 67.9544 98.2701 68.0794 98.2968C68.2076 98.3211 68.3099 98.3539 68.3864 98.3952C68.4626 98.4341 68.501 98.4997 68.501 98.592C68.501 98.6819 68.4384 98.7572 68.3134 98.8179C68.1818 98.8786 67.9979 98.909 67.7618 98.909C67.2309 98.909 66.8424 98.7815 66.5959 98.5264ZM72.0768 96.7919C72.2988 96.7919 72.4896 96.7567 72.6492 96.6862C72.7358 96.6473 72.7793 96.5696 72.7793 96.453V96.4311C72.7793 96.2562 72.7031 96.1093 72.5504 95.9902C72.3977 95.8687 72.1807 95.808 71.8996 95.808H71.8372C71.5214 95.808 71.2299 95.8906 70.9629 96.0558C70.699 96.221 70.5671 96.4299 70.5671 96.6826V96.7445C70.5671 96.8198 70.6487 96.8575 70.8118 96.8575L70.864 96.8647H71.0513L71.0825 96.8611L71.3687 96.8465L71.4052 96.8429L71.5979 96.832C71.6222 96.8295 71.6499 96.8271 71.6811 96.8247C71.7122 96.8222 71.7749 96.8162 71.8684 96.8065C71.9657 96.7967 72.035 96.7919 72.0768 96.7919ZM71.8007 98.9746H71.6811C71.3306 98.9722 71.0114 98.9272 70.7233 98.8398C70.1716 98.6697 69.7986 98.3782 69.6043 97.9652C69.4969 97.7344 69.4431 97.5012 69.4431 97.2656V97.1016C69.4465 96.8563 69.5142 96.6121 69.6459 96.3692C69.9166 95.8785 70.3625 95.5529 70.9837 95.3926C71.2752 95.3197 71.5737 95.2833 71.8788 95.2833H71.9934C72.4861 95.2833 72.8955 95.3902 73.2216 95.6039C73.5478 95.8153 73.7109 96.1044 73.7109 96.4712V96.5441C73.7109 96.8016 73.5931 96.9826 73.357 97.087C73.1766 97.1672 72.762 97.2401 72.113 97.3057C71.4676 97.3713 71.0809 97.4186 70.9525 97.4478C70.7443 97.4939 70.6401 97.5607 70.6401 97.6482C70.6401 97.8693 70.7979 98.0539 71.1137 98.2021C71.2976 98.2871 71.5841 98.3296 71.9726 98.3296C72.1322 98.3296 72.3803 98.2968 72.7169 98.2312C73.057 98.1632 73.2704 98.1292 73.357 98.1292C73.5617 98.1292 73.6643 98.2021 73.6643 98.3478C73.6643 98.4936 73.4647 98.6345 73.0655 98.7705C72.67 98.9066 72.2484 98.9746 71.8007 98.9746ZM75.8295 97.1016V97.3421C75.8365 97.3907 75.8399 97.4284 75.8399 97.4551C75.8399 97.7296 75.9439 97.9591 76.152 98.1438C76.3639 98.3284 76.612 98.4207 76.8963 98.4207H76.9485C77.1532 98.4207 77.3424 98.3867 77.5159 98.3187C77.6894 98.2507 77.8176 98.1644 77.901 98.06C78.0675 97.8535 78.1507 97.4721 78.1507 96.9158L78.156 96.8429V96.77L78.1507 96.7336L78.1456 96.6243L78.1299 96.4421C78.1299 96.2453 78.0502 96.0922 77.8906 95.9829C77.7344 95.8712 77.5279 95.8153 77.2713 95.8153H77.1202C76.7524 95.8153 76.4454 95.9331 76.1989 96.1688C75.9527 96.402 75.8295 96.7129 75.8295 97.1016ZM79.4053 98.3442C79.4053 98.626 79.2388 98.7669 78.9057 98.7669C78.7876 98.7669 78.6695 98.7462 78.5515 98.7049C78.4337 98.6637 78.3538 98.643 78.3122 98.643C78.2741 98.643 78.1006 98.6843 77.7917 98.7669C77.4863 98.8495 77.2209 98.8908 76.9954 98.8908H76.7716C76.1781 98.8908 75.7184 98.7438 75.3922 98.4499C75.066 98.1559 74.9029 97.766 74.9029 97.2802L74.9083 97.1927V97.1053C74.9083 96.8818 74.9653 96.6498 75.0799 96.4093C75.198 96.1688 75.3645 95.9586 75.5796 95.7789C75.9892 95.4436 76.5269 95.276 77.1932 95.276L77.9479 95.3124C78.0902 95.3124 78.1821 95.2493 78.2237 95.123C78.2653 94.9942 78.2965 94.7707 78.3175 94.4525C78.3383 94.1318 78.3764 93.9265 78.4318 93.8366C78.5152 93.703 78.6679 93.6362 78.8899 93.6362H78.9784C79.1415 93.6362 79.2492 93.6885 79.3011 93.7929C79.3254 93.8415 79.3376 94.0273 79.3376 94.3504L79.3219 94.7695L79.3169 94.8533L79.2907 95.87V97.0397C79.2907 97.1441 79.3062 97.353 79.3376 97.6664L79.3688 97.9725C79.3931 98.2106 79.4053 98.3345 79.4053 98.3442ZM90.9444 98.4426C90.9444 98.6151 90.8282 98.7013 90.5959 98.7013C90.5194 98.7013 90.4224 98.6576 90.3043 98.5701C90.1897 98.4827 90.1082 98.3491 90.0597 98.1693C90.0112 97.9895 89.9555 97.4842 89.8931 96.6534C89.8342 95.8202 89.7577 95.4035 89.6642 95.4035C89.5739 95.4035 89.2858 95.7862 88.8 96.5514C88.3179 97.3166 88.0367 97.7405 87.9568 97.8231C87.8006 97.9834 87.629 98.0636 87.4417 98.0636C87.2543 98.0636 87.1051 97.998 86.994 97.8668C86.8828 97.7357 86.7339 97.4976 86.5462 97.1526C85.9149 95.9939 85.5314 95.4145 85.3961 95.4145C85.3164 95.4145 85.1914 95.8712 85.0214 96.7846C84.8548 97.6956 84.7679 98.162 84.761 98.1839C84.6536 98.4729 84.5148 98.6175 84.3448 98.6175C84.1225 98.6175 84.0116 98.5312 84.0116 98.3588C84.0116 98.3029 84.029 98.1122 84.0636 97.7867C84.1017 97.4587 84.126 97.1878 84.1364 96.9741C84.1468 96.7579 84.1643 96.4749 84.1886 96.125C84.2163 95.7728 84.2302 95.2821 84.2302 94.6529C84.2302 94.478 84.2736 94.3383 84.3602 94.2338C84.4817 94.0856 84.6587 94.0116 84.8911 94.0116C85.1237 94.0116 85.3476 94.1197 85.5626 94.3359C85.7811 94.5496 86.1438 95.0051 86.6504 95.7023C87.1605 96.3971 87.4363 96.7445 87.4779 96.7445C87.5232 96.7445 87.7868 96.4226 88.2691 95.7789C88.7549 95.1327 89.0777 94.7221 89.2373 94.5472C89.5669 94.1877 89.8654 94.0079 90.1324 94.0079C90.4621 94.0079 90.6755 94.1051 90.7728 94.2994C90.8698 94.4913 90.9186 95.0185 90.9186 95.8809L90.8821 97.3275C90.8821 97.5996 90.8925 97.8389 90.9132 98.0454C90.934 98.2494 90.9444 98.3819 90.9444 98.4426ZM93.2866 97.9324C93.2866 98.0879 93.3943 98.2179 93.6093 98.3223C93.7517 98.3928 93.9529 98.428 94.2132 98.428H94.2444C94.307 98.4207 94.3728 98.4171 94.4421 98.4171C94.6748 98.4171 94.8829 98.3442 95.0668 98.1984C95.2541 98.0527 95.3479 97.913 95.3479 97.7794L95.3583 97.7357L95.3738 97.5425V97.353C95.3738 97.2632 95.3306 97.2024 95.2437 97.1709C95.1606 97.1368 94.9991 97.1198 94.7598 97.1198H94.6868L94.6505 97.1235H94.5828L94.3641 97.1344C94.2913 97.1417 94.2324 97.1453 94.1871 97.1453C93.9374 97.1453 93.7221 97.2 93.5417 97.3093C93.3647 97.4186 93.2762 97.5644 93.2762 97.7466V97.8523C93.2832 97.8911 93.2866 97.9179 93.2866 97.9324ZM92.9173 95.9465C92.6881 95.9465 92.5738 95.859 92.5738 95.6841C92.5738 95.5627 92.6934 95.4606 92.9327 95.378C93.3146 95.2444 93.7221 95.1776 94.1559 95.1776H94.4059C94.7529 95.1776 95.0772 95.2213 95.3791 95.3088C95.6845 95.3963 95.9188 95.5311 96.0819 95.7133C96.29 95.9441 96.3942 96.4554 96.3942 97.2474C96.3942 97.6652 96.415 97.9737 96.4565 98.1729C96.5016 98.3721 96.5242 98.5179 96.5242 98.6102C96.5242 98.7924 96.3577 98.8835 96.0246 98.8835C95.8753 98.8835 95.7365 98.8519 95.608 98.7888C95.4799 98.7256 95.3773 98.694 95.301 98.694C95.2248 98.694 95.0218 98.7402 94.6921 98.8325C94.3625 98.9248 94.0309 98.971 93.6978 98.971C93.2296 98.971 92.8616 98.8677 92.5945 98.6612C92.3307 98.4547 92.1988 98.2009 92.1988 97.8996V97.8158C92.1988 97.4466 92.428 97.1611 92.8858 96.9595C93.1843 96.8283 93.6443 96.7384 94.2652 96.6899C94.8898 96.6413 95.2195 96.6024 95.2541 96.5733C95.2992 96.5368 95.3218 96.4749 95.3218 96.3874C95.3218 96.3607 95.3202 96.3327 95.3168 96.3036C95.2715 95.9586 94.9245 95.7849 94.2756 95.7825C94.0363 95.7825 93.7743 95.8104 93.4897 95.8663C93.2051 95.9198 93.0143 95.9465 92.9173 95.9465ZM101.328 97.0761V96.9522C101.328 96.5611 101.228 96.2696 101.026 96.0777C100.825 95.8858 100.577 95.7898 100.282 95.7898H100.183C99.8293 95.7898 99.5396 95.8748 99.3141 96.0449C99.0919 96.2125 98.981 96.4457 98.981 96.7445L98.9653 96.8575L98.9549 97.0105V97.1672L98.9496 97.2838V97.3968C98.9496 97.8195 99.0053 98.0891 99.1161 98.2057C99.2792 98.3782 99.5465 98.4645 99.9177 98.4645H99.97C100.39 98.4645 100.721 98.3406 100.964 98.0928C101.207 97.845 101.328 97.5061 101.328 97.0761ZM98.4864 95.44C98.5872 95.44 98.6911 95.4594 98.7987 95.4983C98.9064 95.5347 98.9792 95.5529 99.0173 95.5529C99.0556 95.5529 99.2395 95.508 99.5692 95.4181C99.8988 95.3258 100.204 95.2796 100.485 95.2796H100.6C100.856 95.2796 101.104 95.3197 101.344 95.3999C101.583 95.4776 101.786 95.593 101.953 95.7461C102.265 96.0327 102.421 96.3838 102.421 96.7992V97.0542C102.421 97.319 102.361 97.5814 102.239 97.8413C102.118 98.1037 101.953 98.315 101.745 98.4754C101.318 98.8058 100.744 98.971 100.022 98.971C99.8415 98.971 99.6715 98.9588 99.5119 98.9345C99.3557 98.9126 99.248 98.9017 99.1892 98.9017C99.0191 98.9017 98.9341 99.1604 98.9341 99.6779C98.9341 99.9767 98.8872 100.184 98.7934 100.301C98.7033 100.418 98.5576 100.476 98.3564 100.476H98.2626C98.1307 100.476 98.0352 100.448 97.9764 100.392C97.9209 100.339 97.8932 100.243 97.8932 100.104V100.028L97.8983 99.9475L97.9191 99.2989L97.9502 98.479L97.9817 97.1563C97.9817 96.1943 97.9867 95.6975 97.9971 95.6659C98.0491 95.5153 98.2122 95.44 98.4864 95.44ZM107.085 97.0761V96.9522C107.085 96.5611 106.984 96.2696 106.783 96.0777C106.582 95.8858 106.334 95.7898 106.039 95.7898H105.94C105.586 95.7898 105.296 95.8748 105.071 96.0449C104.849 96.2125 104.738 96.4457 104.738 96.7445L104.722 96.8575L104.711 97.0105V97.1672L104.706 97.2838V97.3968C104.706 97.8195 104.762 98.0891 104.873 98.2057C105.036 98.3782 105.303 98.4645 105.675 98.4645H105.726C106.146 98.4645 106.478 98.3406 106.721 98.0928C106.964 97.845 107.085 97.5061 107.085 97.0761ZM104.243 95.44C104.344 95.44 104.448 95.4594 104.555 95.4983C104.663 95.5347 104.736 95.5529 104.774 95.5529C104.812 95.5529 104.996 95.508 105.326 95.4181C105.655 95.3258 105.961 95.2796 106.242 95.2796H106.356C106.613 95.2796 106.861 95.3197 107.101 95.3999C107.34 95.4776 107.543 95.593 107.709 95.7461C108.022 96.0327 108.178 96.3838 108.178 96.7992V97.0542C108.178 97.319 108.117 97.5814 107.996 97.8413C107.874 98.1037 107.709 98.315 107.501 98.4754C107.075 98.8058 106.5 98.971 105.778 98.971C105.598 98.971 105.428 98.9588 105.268 98.9345C105.112 98.9126 105.005 98.9017 104.946 98.9017C104.776 98.9017 104.691 99.1604 104.691 99.6779C104.691 99.9767 104.644 100.184 104.55 100.301C104.46 100.418 104.314 100.476 104.113 100.476H104.019C103.887 100.476 103.792 100.448 103.733 100.392C103.677 100.339 103.65 100.243 103.65 100.104V100.028L103.655 99.9475L103.676 99.2989L103.707 98.479L103.738 97.1563C103.738 96.1943 103.744 95.6975 103.754 95.6659C103.806 95.5153 103.969 95.44 104.243 95.44ZM110.713 94.2666C110.713 94.5193 110.508 94.6456 110.099 94.6456H110.057L110.036 94.642L109.88 94.631C109.866 94.6286 109.854 94.6274 109.844 94.6274C109.618 94.6274 109.505 94.5193 109.505 94.3031V94.2338C109.505 94.1002 109.549 94.0031 109.635 93.9423C109.722 93.8816 109.83 93.8512 109.958 93.8512L110.078 93.8403H110.197L110.374 93.8585C110.59 93.8585 110.697 93.9435 110.697 94.1136L110.713 94.1974V94.2666ZM110.541 97.2547L110.76 98.3733V98.4535L110.754 98.49C110.754 98.6478 110.707 98.7596 110.614 98.8252C110.52 98.8908 110.338 98.9236 110.067 98.9236H110.005C109.762 98.9236 109.608 98.8313 109.542 98.6466C109.507 98.5519 109.49 98.1863 109.49 97.5498V95.9902L109.463 95.7461V95.6659C109.463 95.5469 109.495 95.4643 109.557 95.4181C109.62 95.372 109.719 95.3489 109.854 95.3489H110.031C110.277 95.3489 110.428 95.4108 110.484 95.5347C110.508 95.5882 110.52 95.7874 110.52 96.1323V96.9194L110.536 97.1381C110.539 97.1672 110.541 97.2061 110.541 97.2547ZM112.28 95.8044C112.318 95.61 112.425 95.5129 112.602 95.5129C112.779 95.5129 112.94 95.5542 113.086 95.6367C113.232 95.7193 113.326 95.7606 113.367 95.7606C113.409 95.7606 113.522 95.7254 113.706 95.655C113.893 95.5821 114.009 95.5384 114.054 95.5238C114.335 95.4363 114.618 95.3926 114.903 95.3926C115.43 95.3926 115.821 95.5153 116.074 95.7606C116.331 96.006 116.459 96.4506 116.459 97.0943C116.459 97.2255 116.483 97.4988 116.532 97.9142C116.584 98.3272 116.61 98.5398 116.61 98.5519C116.61 98.7098 116.48 98.7888 116.22 98.7888C115.959 98.7888 115.786 98.6879 115.699 98.4863C115.616 98.2847 115.541 97.9021 115.475 97.3385C115.413 96.7725 115.342 96.4238 115.262 96.2927C115.113 96.0449 114.84 95.921 114.445 95.921C114.247 95.921 114.058 95.9611 113.877 96.0412C113.7 96.1214 113.56 96.2392 113.456 96.3947C113.355 96.5502 113.272 96.9182 113.206 97.4988C113.143 98.0794 113.093 98.4195 113.055 98.5191C113.017 98.6187 112.956 98.6952 112.873 98.7487C112.793 98.7997 112.68 98.8252 112.535 98.8252C112.392 98.8252 112.291 98.8021 112.233 98.756C112.177 98.7074 112.149 98.6053 112.149 98.4499V98.3588L112.155 98.264L112.17 97.7903C112.17 97.7271 112.17 97.664 112.17 97.6008L112.181 97.3166C112.181 96.6583 112.214 96.1542 112.28 95.8044ZM121.039 96.832L121.029 96.6534C121.029 96.4202 120.956 96.2429 120.81 96.1214C120.665 95.9999 120.46 95.9392 120.196 95.9392H120.004C119.833 95.9392 119.658 95.9744 119.478 96.0449C119.301 96.1153 119.159 96.2064 119.051 96.3182C118.839 96.5417 118.734 96.8684 118.734 97.2984L118.739 97.3348C118.739 97.6676 118.812 97.9191 118.958 98.0891C119.152 98.3175 119.407 98.4317 119.723 98.4317H119.863C120.214 98.4317 120.495 98.3442 120.706 98.1693C120.918 97.9944 121.024 97.7211 121.024 97.3494C121.031 97.3008 121.034 97.2644 121.034 97.2401L121.045 97.0542V96.8684L121.039 96.832ZM117.864 97.1381V96.9413C117.864 96.7348 117.918 96.5234 118.026 96.3072C118.137 96.0886 118.269 95.9161 118.421 95.7898C118.761 95.508 119.258 95.3671 119.91 95.3671C120.156 95.3671 120.423 95.3999 120.712 95.4655C120.999 95.5311 121.244 95.5639 121.445 95.5639C121.768 95.5639 121.964 95.6501 122.033 95.8226C122.106 95.9951 122.143 96.5392 122.143 97.4551V97.9616L122.153 98.2458C122.16 98.3697 122.164 98.4329 122.164 98.4353V98.9199C122.164 99.4398 121.964 99.8528 121.565 100.159C121.36 100.314 121.097 100.432 120.774 100.512C120.455 100.595 120.137 100.636 119.821 100.636H119.676C119.343 100.636 119.02 100.594 118.708 100.509C118.399 100.424 118.244 100.316 118.244 100.184C118.244 100.034 118.413 99.9585 118.749 99.9585C118.784 99.9585 118.881 99.9645 119.041 99.9767C119.2 99.9888 119.383 99.9949 119.587 99.9949C120.01 99.9949 120.363 99.9062 120.644 99.7289C120.928 99.554 121.071 99.3232 121.071 99.0365C121.071 98.8981 121.012 98.8288 120.894 98.8288L120.175 98.8798C119.106 98.8798 118.399 98.5507 118.052 97.8924C117.927 97.6494 117.864 97.398 117.864 97.1381ZM128.451 94.8569V95.0064C128.451 95.1472 128.574 95.361 128.821 95.6477C128.904 95.7448 128.982 95.7934 129.055 95.7934C129.249 95.7934 129.463 95.6635 129.695 95.4035C129.827 95.2554 129.893 95.095 129.893 94.9225V94.8569C129.893 94.7185 129.834 94.597 129.716 94.4926C129.598 94.3857 129.456 94.3322 129.289 94.3322H129.18C128.975 94.3322 128.802 94.3954 128.659 94.5217C128.521 94.648 128.451 94.7598 128.451 94.8569ZM127.749 97.3931V97.5061C127.749 97.7466 127.854 97.9494 128.066 98.1146C128.278 98.2798 128.531 98.3624 128.826 98.3624H128.987C129.289 98.3624 129.584 98.292 129.872 98.1511C130.021 98.0782 130.096 98.0162 130.096 97.9652V97.947C130.096 97.9397 130.006 97.8535 129.825 97.6883C129.648 97.5207 129.416 97.2923 129.128 97.0032C128.843 96.7117 128.682 96.566 128.644 96.566C128.508 96.566 128.293 96.7032 127.998 96.9777C127.832 97.1332 127.749 97.2717 127.749 97.3931ZM128.826 98.9928C128.25 98.9928 127.766 98.8714 127.374 98.6284C126.985 98.3831 126.791 98.0721 126.791 97.6956C126.791 97.319 127.03 96.9279 127.509 96.5222C127.759 96.3109 127.884 96.176 127.884 96.1177C127.884 96.057 127.825 95.9222 127.707 95.7133C127.589 95.5044 127.53 95.3137 127.53 95.1412C127.53 94.8108 127.695 94.5424 128.024 94.3359C128.354 94.1294 128.734 94.0261 129.164 94.0261C129.595 94.0261 129.95 94.1172 130.231 94.2994C130.516 94.4792 130.658 94.6784 130.658 94.897C130.658 95.1157 130.602 95.3112 130.492 95.4837C130.384 95.6538 130.226 95.8323 130.018 96.0194C129.81 96.204 129.706 96.3522 129.706 96.4639C129.706 96.5733 129.844 96.7348 130.122 96.9486C130.4 97.1599 130.601 97.2656 130.726 97.2656C130.854 97.2656 131.019 97.1563 131.22 96.9376C131.425 96.7166 131.607 96.606 131.767 96.606C131.975 96.606 132.079 96.6741 132.079 96.8101C132.079 96.8975 132.015 97.0542 131.886 97.2802C131.758 97.5037 131.694 97.6859 131.694 97.8268C131.694 97.9652 131.786 98.1219 131.97 98.2968C132.157 98.4693 132.251 98.5847 132.251 98.643C132.251 98.7523 132.145 98.807 131.933 98.807C131.798 98.807 131.63 98.779 131.428 98.7232C131.231 98.6649 131.094 98.6357 131.017 98.6357C130.941 98.6357 130.79 98.6661 130.564 98.7268L130.32 98.796C129.823 98.9272 129.374 98.9928 128.972 98.9928H128.826ZM140.563 98.0381C140.851 97.8972 140.995 97.7174 140.995 97.4988C140.995 97.2777 140.893 97.0907 140.688 96.9376C140.487 96.7846 140.386 96.6935 140.386 96.6643C140.386 96.5793 140.534 96.5368 140.829 96.5368C141.287 96.5368 141.611 96.6145 141.802 96.77C141.916 96.8647 141.974 97.0615 141.974 97.3603V97.6045C141.974 98.1486 141.829 98.5118 141.542 98.694C141.427 98.7669 141.202 98.8337 140.865 98.8944C140.528 98.9527 140.166 98.9819 139.777 98.9819C139.381 98.9819 138.972 98.9212 138.549 98.7997C137.695 98.5568 137.121 98.0928 136.826 97.4077C136.68 97.07 136.607 96.6996 136.607 96.2963C136.607 95.5408 136.882 94.9395 137.43 94.4926C137.721 94.2545 138.075 94.0699 138.491 93.9387C138.911 93.8075 139.369 93.7419 139.866 93.7419C140.362 93.7419 140.752 93.7881 141.037 93.8804C141.557 94.048 141.817 94.2351 141.817 94.4415C141.817 94.5824 141.68 94.6529 141.406 94.6529C141.372 94.6529 141.175 94.6213 140.818 94.5581C140.464 94.495 140.135 94.4634 139.829 94.4634C139.524 94.4634 139.225 94.5205 138.934 94.6347C138.642 94.7488 138.408 94.8897 138.231 95.0574C137.922 95.3489 137.768 95.7728 137.768 96.3291C137.768 96.883 137.931 97.336 138.257 97.6883C138.576 98.0284 139.076 98.1984 139.756 98.1984C140.082 98.1984 140.351 98.145 140.563 98.0381ZM143.717 98.4134C143.717 98.3576 143.759 98.1839 143.842 97.8924C143.932 97.5765 143.977 97.2352 143.977 96.8684L143.988 96.5988V96.4639L143.993 96.3291V96.1943L143.998 96.0631C143.998 95.6161 143.986 95.3076 143.962 95.1375C143.937 94.9651 143.891 94.8023 143.821 94.6492C143.755 94.4962 143.722 94.3504 143.722 94.212C143.722 93.9375 143.986 93.8002 144.514 93.8002H144.602C144.821 93.8002 144.984 93.8476 145.091 93.9423C145.199 94.0371 145.253 94.1427 145.253 94.2593V94.314C145.253 94.3602 145.227 94.478 145.174 94.6675C145.126 94.8569 145.102 95.0549 145.102 95.2614L145.091 95.3926L145.076 95.9356V96.2744L145.071 96.4785C145.071 96.5441 145.071 96.6097 145.071 96.6753L145.065 96.7409V97.0032L145.06 97.1344V97.6154C145.06 97.7709 145.083 97.9276 145.128 98.0855C145.176 98.2434 145.201 98.3806 145.201 98.4972C145.201 98.6114 145.15 98.7098 145.05 98.7924C144.952 98.8726 144.786 98.9126 144.55 98.9126H144.373C144.186 98.9126 144.03 98.8774 143.905 98.807C143.78 98.7365 143.717 98.626 143.717 98.4754V98.4134ZM151.493 97.5753C151.493 97.9932 151.266 98.3308 150.812 98.5883C150.357 98.8458 149.809 98.9746 149.167 98.9746C148.525 98.9746 148.015 98.9151 147.637 98.796C147.262 98.6746 146.995 98.5385 146.835 98.3879C146.762 98.3175 146.726 98.2458 146.726 98.1729C146.726 98.1 146.767 98.0333 146.85 97.9725C146.934 97.9118 147.02 97.8814 147.111 97.8814C147.201 97.8814 147.329 97.9106 147.496 97.9689L147.741 98.06C148.192 98.2227 148.617 98.3041 149.016 98.3041C149.415 98.3041 149.72 98.2555 149.932 98.1583C150.22 98.0272 150.364 97.845 150.364 97.6118C150.364 97.3761 150.215 97.1745 149.916 97.0069C149.694 96.8806 149.293 96.7299 148.714 96.555C148.134 96.3801 147.729 96.2149 147.496 96.0594C147.093 95.7898 146.892 95.4582 146.892 95.0647C146.892 94.6711 147.113 94.3504 147.553 94.1027C147.99 93.8573 148.575 93.7346 149.307 93.7346H149.328C149.769 93.7346 150.135 93.7771 150.426 93.8622C150.721 93.9472 150.924 94.0383 151.035 94.1354C151.15 94.2302 151.207 94.2982 151.207 94.3395C151.207 94.4488 151.169 94.5339 151.092 94.5946C151.016 94.6553 150.916 94.6857 150.791 94.6857C150.773 94.6857 150.575 94.6335 150.197 94.529C149.823 94.4245 149.444 94.3723 149.063 94.3723C148.681 94.3723 148.379 94.4622 148.157 94.642C148.053 94.7294 147.987 94.8339 147.959 94.9553C147.952 94.9821 147.949 95.0088 147.949 95.0355C147.949 95.1327 147.989 95.2359 148.069 95.3452C148.204 95.5226 148.646 95.7278 149.396 95.9611C150.145 96.1918 150.64 96.3862 150.879 96.5441C151.289 96.8113 151.493 97.115 151.493 97.4551V97.5753Z" fill="#374045"/>
<path d="M37.4205 82.0764C37.3075 81.3707 37.0753 80.8072 36.7239 80.3858C36.3851 79.9645 35.9458 79.7539 35.4062 79.7539C34.6406 79.7539 34.0319 80.0593 33.5801 80.6702C33.1283 81.2706 32.9024 82.2028 32.9024 83.4667C32.9024 84.994 33.2538 86.1105 33.9566 86.8162C34.6594 87.5219 35.5693 87.8748 36.6863 87.8748C37.2259 87.8748 37.7028 87.7905 38.117 87.622C38.5312 87.4534 38.8261 87.2533 39.0018 87.0216C39.1524 87.1164 39.2779 87.2586 39.3783 87.4482C39.4787 87.6378 39.5289 87.8116 39.5289 87.9695C39.5289 88.2329 39.3658 88.5067 39.0394 88.7911C38.7257 89.0755 38.2676 89.3178 37.6652 89.5179C37.0628 89.7075 36.3662 89.8023 35.5756 89.8023C34.4712 89.8023 33.4609 89.5864 32.5447 89.1545C31.6411 88.7227 30.9195 88.0696 30.3798 87.1954C29.8401 86.3211 29.5703 85.2626 29.5703 84.0197C29.5703 82.8084 29.815 81.7815 30.3045 80.9388C30.794 80.0857 31.4779 79.4484 32.3565 79.0271C33.2475 78.5952 34.2829 78.3793 35.4626 78.3793C35.7387 78.3793 36.0525 78.4109 36.4039 78.4741C36.7553 78.5373 37.0628 78.6216 37.3263 78.7269C37.5146 78.6532 37.7907 78.5795 38.1547 78.5057C38.5186 78.432 38.801 78.3899 39.0018 78.3793C39.3658 79.1272 39.5477 80.3595 39.5477 82.0764H37.4205ZM46.1237 89.7865C44.9189 89.7865 43.8772 89.5548 42.9987 89.0913C42.1327 88.6173 41.4676 87.9485 41.0032 87.0848C40.5388 86.2211 40.3067 85.2205 40.3067 84.0829C40.3067 82.8927 40.5451 81.871 41.022 81.0178C41.4989 80.1541 42.1704 79.4958 43.0363 79.0429C43.9148 78.59 44.9377 78.3635 46.1049 78.3635C47.3097 78.3635 48.3514 78.6005 49.2299 79.0745C50.1084 79.5485 50.7798 80.2173 51.2442 81.081C51.7211 81.9342 51.9596 82.9348 51.9596 84.0829C51.9596 85.2626 51.7148 86.2843 51.2254 87.148C50.7485 88.0011 50.0707 88.6542 49.1922 89.1071C48.3137 89.56 47.2909 89.7865 46.1237 89.7865ZM46.1237 88.6331C46.814 88.6331 47.3724 88.3013 47.7991 87.6378C48.2384 86.9742 48.458 85.7682 48.458 84.0197C48.458 82.3555 48.2572 81.1916 47.8556 80.528C47.454 79.8645 46.8893 79.5327 46.1613 79.5327C45.4711 79.5327 44.9063 79.8645 44.4671 80.528C44.0404 81.1916 43.827 82.3924 43.827 84.1303C43.827 85.7945 44.0278 86.9637 44.4294 87.6378C44.8436 88.3013 45.4083 88.6331 46.1237 88.6331ZM56.3825 87.78C56.3825 88.3171 56.8405 88.5857 57.7567 88.5857C57.7567 88.9544 57.6124 89.2862 57.3237 89.5811H53.4081C53.132 89.2967 52.9939 88.9649 52.9939 88.5857C53.4332 88.5857 53.7595 88.5225 53.9728 88.3961C54.1862 88.2697 54.2928 88.0643 54.2928 87.78V80.3542C54.2928 79.8171 53.8348 79.5485 52.9186 79.5485C52.9186 79.3694 52.9562 79.1904 53.0315 79.0113C53.1069 78.8322 53.2073 78.6795 53.3328 78.5531H55.9495C56.3134 78.5531 56.6774 78.6742 57.0413 78.9165C57.4053 79.1482 57.7504 79.4747 58.0767 79.8961L62.3501 85.568V80.3542C62.3501 80.0699 62.2371 79.8645 62.0112 79.7381C61.7853 79.6117 61.4528 79.5485 61.0135 79.5485C61.0135 79.3589 61.0512 79.1798 61.1265 79.0113C61.2018 78.8322 61.3084 78.6795 61.4465 78.5531H65.4563C65.5943 78.6795 65.701 78.8322 65.7763 79.0113C65.8516 79.1904 65.8893 79.3694 65.8893 79.5485C65.4626 79.5485 65.1362 79.6117 64.9103 79.7381C64.697 79.8645 64.5903 80.0699 64.5903 80.3542V89.6759H63.8373C63.2223 89.6759 62.7705 89.6127 62.4819 89.4863C62.1932 89.3494 61.9171 89.1176 61.6536 88.7911L56.3825 82.0764V87.78ZM68.6497 85.6944C68.8505 86.5792 69.2458 87.2796 69.8357 87.7958C70.4255 88.3013 71.1221 88.5541 71.9253 88.5541C72.4524 88.5541 72.8415 88.4277 73.0925 88.1749C73.3435 87.9221 73.469 87.643 73.469 87.3376C73.469 86.8847 73.2305 86.5055 72.7536 86.2C72.2893 85.884 71.6178 85.547 70.7393 85.1889C69.5596 84.7043 68.6685 84.1672 68.0661 83.5773C67.4637 82.9875 67.1625 82.2712 67.1625 81.4286C67.1625 80.8072 67.3445 80.27 67.7084 79.8171C68.0849 79.3536 68.5932 79.0008 69.2333 78.7585C69.8733 78.5163 70.5887 78.3951 71.3794 78.3951C71.7935 78.3951 72.2391 78.432 72.716 78.5057C73.2054 78.5689 73.5945 78.669 73.8831 78.8059L75.4833 78.3951C75.7092 78.7216 75.8535 79.1746 75.9163 79.7539C75.979 80.3227 76.0104 80.981 76.0104 81.7288V81.9658H74.4479C73.9961 80.428 73.1113 79.6591 71.7935 79.6591C71.2915 79.6591 70.915 79.7802 70.664 80.0225C70.413 80.2542 70.2875 80.5649 70.2875 80.9546C70.2875 81.2706 70.3879 81.5445 70.5887 81.7762C70.7895 82.0079 71.0405 82.208 71.3417 82.3766C71.6555 82.5346 72.0696 82.7189 72.5842 82.9295C73.3749 83.2561 74.0337 83.5615 74.5609 83.8459C75.1005 84.1303 75.5649 84.5095 75.9539 84.9835C76.343 85.4469 76.5375 85.9999 76.5375 86.6424C76.5375 87.2322 76.3618 87.7694 76.0104 88.2539C75.659 88.7279 75.1444 89.1071 74.4667 89.3915C73.8016 89.6759 73.0234 89.8181 72.1324 89.8181C71.1158 89.8181 70.1055 89.639 69.1015 89.2809L67.6519 89.8181C67.4135 89.4178 67.2064 88.7964 67.0307 87.9537C66.855 87.1006 66.7672 86.3475 66.7672 85.6944H68.6497ZM88.5061 85.2679C88.5061 86.7319 88.0919 87.8537 87.2636 88.6331C86.4479 89.402 85.2305 89.7865 83.6115 89.7865C81.98 89.7865 80.6999 89.4126 79.7712 88.6647C78.8425 87.9169 78.3781 86.8373 78.3781 85.4258V80.3384C78.3781 80.0541 78.2903 79.8539 78.1146 79.7381C77.9389 79.6117 77.6376 79.5485 77.2109 79.5485C77.2109 79.1482 77.3553 78.8164 77.6439 78.5531H82.3502C82.6389 78.8164 82.7832 79.1482 82.7832 79.5485C82.3565 79.5485 82.0553 79.6117 81.8796 79.7381C81.7039 79.8539 81.616 80.0541 81.616 80.3384V85.7576C81.616 86.516 81.8043 87.1269 82.1808 87.5904C82.5698 88.0433 83.1597 88.2697 83.9504 88.2697C84.741 88.2697 85.3121 88.0643 85.6635 87.6536C86.0274 87.2322 86.2094 86.6845 86.2094 86.0104V80.3384C86.2094 80.0541 86.1027 79.8539 85.8894 79.7381C85.6886 79.6117 85.3497 79.5485 84.8728 79.5485C84.8728 79.1272 85.0109 78.7954 85.287 78.5531H89.4285C89.7046 78.8164 89.8427 79.1482 89.8427 79.5485C89.3658 79.5485 89.0207 79.6117 88.8073 79.7381C88.6065 79.8539 88.5061 80.0541 88.5061 80.3384V85.2679ZM90.7631 89.5811C90.625 89.4547 90.5183 89.302 90.443 89.1229C90.3677 88.9438 90.3301 88.7595 90.3301 88.5699C90.7568 88.5699 91.058 88.512 91.2337 88.3961C91.4094 88.2803 91.4972 88.0749 91.4972 87.78V80.3542C91.4972 80.0593 91.4094 79.8539 91.2337 79.7381C91.058 79.6117 90.7568 79.5485 90.3301 79.5485C90.3301 79.3589 90.3677 79.1798 90.443 79.0113C90.5183 78.8322 90.625 78.6795 90.7631 78.5531H95.4129C95.689 78.7954 95.8271 79.1272 95.8271 79.5485C95.4004 79.5485 95.0866 79.6117 94.8858 79.7381C94.685 79.8645 94.5846 80.0699 94.5846 80.3542V88.2381H95.2811C96.1973 88.2381 96.875 87.9853 97.3143 87.4798C97.7661 86.9742 97.992 86.2632 97.992 85.3468H99.3098C99.5231 85.4838 99.6925 85.7787 99.818 86.2316C99.9435 86.6845 100.006 87.1269 100.006 87.5588C100.006 88.2223 99.8683 88.7279 99.5921 89.0755C99.316 89.4126 98.8642 89.5811 98.2367 89.5811H90.7631ZM111.172 78.3635C111.373 78.7322 111.53 79.401 111.642 80.37C111.755 81.3391 111.812 82.1343 111.812 82.7557C111.649 82.8084 111.391 82.8505 111.04 82.8821C110.701 82.9137 110.394 82.9295 110.118 82.9295C110.042 82.0869 109.917 81.4391 109.741 80.9862C109.578 80.5333 109.352 80.2226 109.063 80.0541C108.775 79.8855 108.398 79.8013 107.934 79.8013H107.614V87.7168C107.614 88.0117 107.777 88.2276 108.103 88.3645C108.43 88.5015 108.932 88.5699 109.609 88.5699C109.609 88.7595 109.572 88.9438 109.496 89.1229C109.421 89.302 109.314 89.4547 109.176 89.5811H102.776C102.65 89.4547 102.55 89.302 102.475 89.1229C102.399 88.9438 102.362 88.7595 102.362 88.5699C103.78 88.5699 104.489 88.2855 104.489 87.7168V79.8013H104.075C102.757 79.8013 101.998 80.844 101.797 82.9295C100.918 82.8979 100.354 82.84 100.103 82.7557C100.103 82.1343 100.159 81.3391 100.272 80.37C100.385 79.401 100.542 78.7322 100.743 78.3635C101.32 78.3635 101.834 78.4267 102.286 78.5531H109.628C110.105 78.4267 110.62 78.3635 111.172 78.3635ZM112.917 89.5811C112.791 89.4547 112.691 89.302 112.616 89.1229C112.54 88.9438 112.503 88.7595 112.503 88.5699C112.917 88.5699 113.205 88.512 113.369 88.3961C113.544 88.2803 113.632 88.0749 113.632 87.78V80.3542C113.632 80.0593 113.544 79.8539 113.369 79.7381C113.205 79.6117 112.917 79.5485 112.503 79.5485C112.503 79.3694 112.54 79.1904 112.616 79.0113C112.691 78.8322 112.791 78.6795 112.917 78.5531H117.491C117.617 78.6795 117.717 78.8322 117.793 79.0113C117.868 79.1904 117.906 79.3694 117.906 79.5485C117.491 79.5485 117.196 79.6117 117.021 79.7381C116.858 79.8539 116.776 80.0593 116.776 80.3542V87.78C116.776 88.0749 116.858 88.2803 117.021 88.3961C117.196 88.512 117.491 88.5699 117.906 88.5699C117.906 88.7595 117.868 88.9438 117.793 89.1229C117.717 89.302 117.617 89.4547 117.491 89.5811H112.917ZM122.4 87.78C122.4 88.3171 122.858 88.5857 123.774 88.5857C123.774 88.9544 123.63 89.2862 123.341 89.5811H119.426C119.15 89.2967 119.012 88.9649 119.012 88.5857C119.451 88.5857 119.777 88.5225 119.99 88.3961C120.204 88.2697 120.31 88.0643 120.31 87.78V80.3542C120.31 79.8171 119.852 79.5485 118.936 79.5485C118.936 79.3694 118.974 79.1904 119.049 79.0113C119.124 78.8322 119.225 78.6795 119.35 78.5531H121.967C122.331 78.5531 122.695 78.6742 123.059 78.9165C123.423 79.1482 123.768 79.4747 124.094 79.8961L128.368 85.568V80.3542C128.368 80.0699 128.255 79.8645 128.029 79.7381C127.803 79.6117 127.47 79.5485 127.031 79.5485C127.031 79.3589 127.069 79.1798 127.144 79.0113C127.219 78.8322 127.326 78.6795 127.464 78.5531H131.474C131.612 78.6795 131.719 78.8322 131.794 79.0113C131.869 79.1904 131.907 79.3694 131.907 79.5485C131.48 79.5485 131.154 79.6117 130.928 79.7381C130.715 79.8645 130.608 80.0699 130.608 80.3542V89.6759H129.855C129.24 89.6759 128.788 89.6127 128.5 89.4863C128.211 89.3494 127.935 89.1176 127.671 88.7911L122.4 82.0764V87.78ZM139.034 89.8023C137.717 89.8023 136.568 89.5653 135.589 89.0913C134.61 88.6173 133.857 87.959 133.33 87.1164C132.803 86.2737 132.54 85.31 132.54 84.2251C132.54 82.9611 132.797 81.8921 133.311 81.0178C133.839 80.1436 134.567 79.4853 135.495 79.0429C136.424 78.6005 137.497 78.3793 138.714 78.3793C139.505 78.3793 140.264 78.4952 140.992 78.7269C141.18 78.6532 141.45 78.5795 141.802 78.5057C142.166 78.432 142.448 78.3899 142.649 78.3793C143.013 79.1588 143.195 80.349 143.195 81.95H141.369C141.243 81.2759 140.929 80.7545 140.427 80.3858C139.938 80.0172 139.348 79.8329 138.658 79.8329C137.83 79.8329 137.177 80.1331 136.7 80.7334C136.236 81.3233 136.004 82.3502 136.004 83.8143C136.004 85.4364 136.236 86.5845 136.7 87.2586C137.164 87.9327 137.874 88.2697 138.827 88.2697C139.179 88.2697 139.474 88.2381 139.712 88.1749C139.951 88.1117 140.151 88.0064 140.315 87.859V86.0578C140.315 85.784 140.17 85.5891 139.882 85.4732C139.605 85.3468 139.166 85.2837 138.564 85.2837C138.564 85.0941 138.608 84.8729 138.696 84.6201C138.783 84.3673 138.89 84.183 139.016 84.0671H143.082C143.571 84.0671 143.91 84.1882 144.098 84.4305C144.287 84.6727 144.381 84.9045 144.381 85.1257C144.381 85.231 144.349 85.3258 144.287 85.41C143.835 85.41 143.483 85.4522 143.232 85.5364V87.3534C143.232 87.6904 143.301 87.9274 143.44 88.0643C143.527 88.1381 143.571 88.2329 143.571 88.3487C143.571 88.5383 143.364 88.749 142.95 88.9807C142.536 89.2124 141.977 89.4073 141.275 89.5653C140.584 89.7233 139.838 89.8023 139.034 89.8023ZM149.115 89.5811C148.99 89.4547 148.889 89.302 148.814 89.1229C148.739 88.9438 148.701 88.7595 148.701 88.5699C149.115 88.5699 149.404 88.512 149.567 88.3961C149.743 88.2803 149.831 88.0749 149.831 87.78V80.3542C149.831 80.0593 149.743 79.8539 149.567 79.7381C149.404 79.6117 149.115 79.5485 148.701 79.5485C148.701 79.3694 148.739 79.1904 148.814 79.0113C148.889 78.8322 148.99 78.6795 149.115 78.5531H153.69C153.815 78.6795 153.916 78.8322 153.991 79.0113C154.066 79.1904 154.104 79.3694 154.104 79.5485C153.69 79.5485 153.395 79.6117 153.219 79.7381C153.056 79.8539 152.975 80.0593 152.975 80.3542V87.78C152.975 88.0749 153.056 88.2803 153.219 88.3961C153.395 88.512 153.69 88.5699 154.104 88.5699C154.104 88.7595 154.066 88.9438 153.991 89.1229C153.916 89.302 153.815 89.4547 153.69 89.5811H149.115ZM158.598 87.78C158.598 88.3171 159.056 88.5857 159.972 88.5857C159.972 88.9544 159.828 89.2862 159.539 89.5811H155.624C155.348 89.2967 155.21 88.9649 155.21 88.5857C155.649 88.5857 155.975 88.5225 156.188 88.3961C156.402 88.2697 156.509 88.0643 156.509 87.78V80.3542C156.509 79.8171 156.05 79.5485 155.134 79.5485C155.134 79.3694 155.172 79.1904 155.247 79.0113C155.323 78.8322 155.423 78.6795 155.548 78.5531H158.165C158.529 78.5531 158.893 78.6742 159.257 78.9165C159.621 79.1482 159.966 79.4747 160.292 79.8961L164.566 85.568V80.3542C164.566 80.0699 164.453 79.8645 164.227 79.7381C164.001 79.6117 163.668 79.5485 163.229 79.5485C163.229 79.3589 163.267 79.1798 163.342 79.0113C163.417 78.8322 163.524 78.6795 163.662 78.5531H167.672C167.81 78.6795 167.917 78.8322 167.992 79.0113C168.067 79.1904 168.105 79.3694 168.105 79.5485C167.678 79.5485 167.352 79.6117 167.126 79.7381C166.913 79.8645 166.806 80.0699 166.806 80.3542V89.6759H166.053C165.438 89.6759 164.986 89.6127 164.698 89.4863C164.409 89.3494 164.133 89.1176 163.869 88.7911L158.598 82.0764V87.78ZM176.588 82.0764C176.475 81.3707 176.243 80.8072 175.892 80.3858C175.553 79.9645 175.114 79.7539 174.574 79.7539C173.808 79.7539 173.2 80.0593 172.748 80.6702C172.296 81.2706 172.07 82.2028 172.07 83.4667C172.07 84.994 172.422 86.1105 173.125 86.8162C173.827 87.5219 174.737 87.8748 175.854 87.8748C176.394 87.8748 176.871 87.7905 177.285 87.622C177.699 87.4534 177.994 87.2533 178.17 87.0216C178.32 87.1164 178.446 87.2586 178.546 87.4482C178.647 87.6378 178.697 87.8116 178.697 87.9695C178.697 88.2329 178.534 88.5067 178.207 88.7911C177.894 89.0755 177.436 89.3178 176.833 89.5179C176.231 89.7075 175.534 89.8023 174.743 89.8023C173.639 89.8023 172.629 89.5864 171.713 89.1545C170.809 88.7227 170.087 88.0696 169.548 87.1954C169.008 86.3211 168.738 85.2626 168.738 84.0197C168.738 82.8084 168.983 81.7815 169.472 80.9388C169.962 80.0857 170.646 79.4484 171.524 79.0271C172.415 78.5952 173.451 78.3793 174.631 78.3793C174.907 78.3793 175.22 78.4109 175.572 78.4741C175.923 78.5373 176.231 78.6216 176.494 78.7269C176.682 78.6532 176.959 78.5795 177.323 78.5057C177.687 78.432 177.969 78.3899 178.17 78.3793C178.534 79.1272 178.716 80.3595 178.716 82.0764H176.588ZM183.352 88.2223C183.352 88.6858 183.177 89.065 182.825 89.3599C182.474 89.6443 182.016 89.7865 181.451 89.7865C180.874 89.7865 180.409 89.6443 180.058 89.3599C179.707 89.065 179.531 88.6858 179.531 88.2223C179.531 87.7484 179.707 87.3692 180.058 87.0848C180.409 86.8004 180.874 86.6582 181.451 86.6582C182.016 86.6582 182.474 86.8004 182.825 87.0848C183.177 87.3692 183.352 87.7484 183.352 88.2223Z" fill="#011F26"/>
</svg>
